<?xml version="1.0" encoding="utf-8"?>
<!-- Generator: Adobe Illustrator 19.2.0, SVG Export Plug-In . SVG Version: 6.00 Build 0)  -->
<svg version="1.1" id="Ebene_3" xmlns="http://www.w3.org/2000/svg" xmlns:xlink="http://www.w3.org/1999/xlink" x="0px" y="0px"
	 viewBox="0 0 500 500" style="enable-background:new 0 0 500 500;" xml:space="preserve">
<style type="text/css">
	.st0{fill:#FFFFFF;}
	.st1{fill:#999999;}
	.st2{fill:#00A19B;}
	.st3{fill:#019893;}
</style>
<g>
	<path class="st0" d="M257.1,149.3c4.2-2.5,7.4-3.8,6.5-3.6c-23.1,2.2-21.6-3.7-44.4-2.4c-10.5,0.6-17.7,3.2-22.5,5.9
		c-5.6,3.1-15.2,10.6-10.8,8.2c14.9-4.7,27-2.8,33.4-1.3c6.4,1.5,15.6,3.8,26-0.1C249.9,154.2,253.7,151.2,257.1,149.3z"/>
	<path class="st0" d="M208.1,136.8c-2.7,0.4-10.6,1.8-9.3,0.8c1.1-1,1.9-2,2.7-2.9c6.7-8.6,0.7-15.6,10.7-24.3
		c7.6-6.7,30-6.7,29.1-6c-7.4,7.3-2.9,14.7-7.7,20.8C229.4,130.4,224.6,134.2,208.1,136.8z"/>
	<path class="st0" d="M161.3,164.9c-1.2,0.4,1.7-1.9,2.8-6c0.9-3.2,0-7.6-0.7-11.2c-1.8-8.4-0.3-14.8,6.1-21.4
		c7.1-7.4,17.8-14.1,28.5-15.2c1.7-0.2,3.3-0.2,5-0.1c0.7,0,2.5,0.2,1.7,0.4c-6,2.4-11.2,4.6-13.1,10.7c-1.8,5.8,2.6,9.7-1.6,17.9
		C185.8,148.2,163.4,164.1,161.3,164.9z"/>
	<path class="st0" d="M211.6,165.7c5.3-1.9,8.1-2,6.2-1c0,0-4.1,2.2-6,4.4c-1.5,1.7-4,5.2-6.1,9.7c-5.9,12.8-22.7,12.9-33.1,9.1
		c-8.9-3.3-15.1,1.4-17.5,1.3c-0.6,0.1,12.3-18.3,26.3-23.2C192.1,162.2,199.9,169.9,211.6,165.7z"/>
	<path class="st0" d="M149.8,141.1c-6.8,4.5-10.3,11.4-12.6,17.7c-2.2,6.3-0.3,18.1,2.2,27.1c2.5,9,1.4,12.6,0.6,15.5
		c5.2-6.5,7.8-11.8,12.8-19.5c2.3-3.9,5.3-8.1,5.7-16C158.8,158.2,152.3,149.7,149.8,141.1z"/>
	<path class="st0" d="M132.8,244.9c-0.6,1.2-0.6-20.5,6-31.1c12.2-19.7,29-19.7,28.5-19c-7.3,5.5-5.1,16.9-4.9,22.8
		c0.2,4.6-2.7,9.5-6.3,12.3C149,235.4,137,237,132.8,244.9z"/>
	<path class="st0" d="M128.2,168.9c0,0-13.7,13.2-16.7,28.7c-2.9,14.9,14.9,45.4,14.8,44.6c-1.1-9.7,0.6-13.4,4.3-21.4
		c3.7-7.9,5.1-12.9,1.3-19.8C128.2,194,119.1,181.3,128.2,168.9z"/>
	<path class="st0" d="M129.2,278.4c-0.3,2.9-1.1,7.7-1.2,5.2c-1.6-10.4-19.2-21.1-24.9-30.3c-5.8-9.2-1.2-25.6,0.8-32.2
		c1.3-4.3,2.1-4.8,2-3.5c-2,14,14.7,20.2,20.3,32.4C129.8,258,129.5,275.3,129.2,278.4z"/>
	<path class="st0" d="M140.6,297.2c0.5-3.7-6.2-12-6.6-21.9c-0.3-8.1-3.5-33.4,29.6-38.6c1.8-0.3,3.8-0.8,4.1-0.6
		c0.2,0.2-2.3,0.8-6.4,4c-9.3,7.1-8.5,13.6-7.3,25C155,274.6,148,291.5,140.6,297.2z"/>
	<path class="st0" d="M100.3,262.3c0.7,0.8,1.6,10.3,18.8,22c22.5,15.4,19.9,31,19.3,29.9c-0.6-1-7.3-8.6-27.4-19.1
		C91.3,285,99.7,261.5,100.3,262.3z"/>
	<path class="st0" d="M108.6,307.1c6.7,2.9,26.6,7.5,36.8,20.2c10.2,12.8,21.9,20.2,22.2,20.6c-14.2-0.3-23.1-0.2-35.5-7.9
		C119,331.8,111,313,108.6,307.1z"/>
	<path class="st0" d="M165.6,338.5c1.2,0.8,7.6-16.8,5.6-25.9c-3.8-17.8-10.3-18.9-10.1-34.3c-8.2,5.7-14.4,19.6-13.9,32
		C147.8,327,158.3,333.6,165.6,338.5z"/>
	<path class="st0" d="M173.3,308.8c0.2-0.2,5.9,3,10.9,8.9c8.1,9.1,4.5,22.7,5.8,29.3c1.1,5.5,4.6,12.8,7.1,16.1
		c0.7,0.9,1.4,1.8,1.7,2.3c0.3,0.5-1.7-0.7-2.5-1.1c-8.6-4.6-18.4-9.3-21.8-19.3c-3.6-10.9,0.3-17.2,0.6-23.9
		C175.5,315.1,172.8,309.4,173.3,308.8z"/>
	<path class="st0" d="M195.1,371.4c1.5,1.4,3.7,2.6,3.7,2.9c0,0.3-2.8,1-3.9,1.5c-7.6,3.1-17.4,4.6-28.9,1.1
		c-9.4-2.8-13.1-7.4-19-14.9c-3.7-4.7-7.2-7.5-13.4-11.4c-0.7-0.4-2.3-1.2-2.2-1.3c0.1-0.2,2.3,0.8,3.2,1.1c8.5,3,18.6,1.2,28.4,2.3
		c6.4,0.7,14.1,3.5,20.4,7.6C186.4,362.2,191.4,367.8,195.1,371.4z"/>
	<path class="st0" d="M369.2,149.6c0.3,0.1,1.4,13.1,7.6,19.3c13.9,13.6,1,36.3,0.6,36.1c-0.3-0.2-2.7-13.5-11.5-21
		C353.3,173.3,368.9,149.5,369.2,149.6z"/>
	<path class="st0" d="M274.5,119.6c-0.2-0.1-9.8,4.3-16.8,2.4c-15.5-4.2-25.9,13.9-25.5,14c0.2,0.1,10.6-3.5,19.7-0.4
		C264.8,140.2,274.8,119.8,274.5,119.6z"/>
	<path class="st0" d="M344.1,181.2c0,0,5,8.1,13.5,12.8c8.5,4.7,15.2,17.8,17.1,26.4c1.9,8.6,2.4,14.8,2.5,20.6
		c0.1,5.8-1.3-5.8-5.8-12.2c-2.7-3.9-12.3-10.3-16.2-14.5C351.3,209.9,344.5,198.6,344.1,181.2z"/>
	<path class="st0" d="M402.4,187.4c0.2,0.1-1.8,10.3,2.1,20.5c7.2,18.7-20.5,31.6-21.1,29.7C373.9,203.2,402.2,187.4,402.4,187.4z"
		/>
	<path class="st0" d="M362.7,228.3c0,0-2.6,5.6,4.5,13.3c7.1,7.7,12,11.1,11.4,23.2c-0.6,12.1-7.3,21.9-7.3,21.9s-2-14.1-12-22.9
		C349.2,254.9,344.6,236.6,362.7,228.3z"/>
	<path class="st0" d="M382,279.1c0,0-2.3-18.7,4.5-29.2c5.4-8.3,15.1-12.9,21.7-18.8c1.7-1.6,4.1-5.2,4.5-5.1
		c0.4,0.1-3.1,9.2-2.3,24.9C411.4,270.5,395.9,275,382,279.1z"/>
	<path class="st0" d="M370,312.5c2.3-5.8,4-13,9.3-18.6c3.9-4.1,9.8-6.5,14.5-9.2c6.9-4.1,12.1-7.9,12-10.4c0,0,26.5,23.9-41.6,49
		C365.2,321.8,368,317.6,370,312.5z"/>
	<path class="st0" d="M350.8,261.1c0,0,1.9,9.1,7.4,16.1c6.3,8.1,14.3,26.4-8.3,53.7c1.9-4.9,4.3-12.7,2.9-20.2
		c-1.6-8.8-7.3-17.4-7.8-24.2C344.1,274,350.8,261.1,350.8,261.1z"/>
	<path class="st0" d="M385.7,333.1c1.6-5.7,3.3-10.6,4.4-11.8c0,0-13,1.8-26.1,11.8c-13.1,10-11,16.9-20.1,20.1
		c8.4,1.8,24.5,3.2,33.5-3.6C382.2,346.1,384,339.2,385.7,333.1z"/>
	<path class="st0" d="M341.2,292.9c0,0-2.8,6.7,2,25.8c4.9,19.1-10.3,32.2-12.9,34.7c3.2-10.4,2.9-17.3,0-27.7
		C327.4,315.3,322.9,302.1,341.2,292.9z"/>
	<path class="st0" d="M322.6,323.2c0,0-5.5,3.2,1.1,16.7c6.6,13.5,5.5,23.2-20.4,28.7c5.2-6.6,6-13.9,5.5-25.5
		C308.3,331.6,314,326.4,322.6,323.2z"/>
	<path class="st0" d="M304.4,377.5c0,0,7.1-1.5,19.1-9.9c12-8.4,30.5-2.4,35.8-4.7c-6,8.3-0.8,16-15.6,22.2
		C329,391.3,307.2,379.5,304.4,377.5z"/>
	<path class="st0" d="M268.4,375.6c0,0,7.8-5.4,11.5-20.8c3.7-15.4,20.6-15.2,20.6-15.2s-6.2,1.3-5,17.7
		C296.6,373.6,297.1,382.5,268.4,375.6z"/>
	<path class="st0" d="M323.3,392.5c0,0-7,0.7-11.7,6.8c-4,5.3-12.2,7.8-21.5,3c-12.3-6.3-13.8-12.8-25-18c9.4,2.8,15.7,3.3,29.2,1.2
		C310.9,382.9,323.3,392.5,323.3,392.5z"/>
</g>
<path class="st1" d="M333.8,195.9c0,0-1.4-1.6-5.8-2.5c0,0-2.3-0.7-3.2-1.6c0,0-5.1-2.8-7.4,1.2l-4.4,7.2c0,0-0.2,2.1-1.2,3.2
	c0,0-4.2,3.2-3.2,7.2l-6.9,6l-1.2-1.9l1.9-2.1l-2.8-4.1l-5.3,0.3v-2.7c0,0,3-2.1,3.5-4c0,0,2.3-8.4,1.8-12.3c0,0-0.3-6.5,3.4-9.9
	c0,0,4.6-3,6-7.4c0,0,1.6-4.6,3.7-5.3c0,0,1.8-2.5,5.5-1.6c0,0,5.5,1.2,6.5-2.1l1.1-3.2c0,0,0.3-2.7-1.2-3l-0.3-3.2
	c0,0-0.9-1.6-2.8-2.1c0,0-3.4-1.8-5.1-0.7c0,0-1.8,1.2-2.5,1.4c0,0-3,1.4-3.7,2.5c0,0-1.9,2.1-3.5,2.1c0,0-2.7,0.9-3,2.7
	c0,0-8.6,7.1-12.5,9.9c0,0-6.4,6-7.8,10.6c0,0-2.1,4.8-4,6.2c0,0-8.3,15.3-9.7,22.6c0,0-1.8,8.1-3,12.2c0,0-4.4,12-8,20.8
	c2,10.2,3.9,19.7,3.9,19.7s-5.1-2.1-10.9-4.5c-2.1,4.6-4.5,10.2-5.3,13.1c0,0-7.2,14.5-10.4,18.9c0,0-5.3,9.7-5.6,13.9
	c0,0-5.3,13.2-6.5,15.5c0,0-7.4,16.8-7.6,22.8c0,0,0.2,6.2,0.5,7.4c0,0,0.6,0.7-1.8,4.4c0,0-3.7,4.7-7.3,15.3c0,0-3.3,7.3-4.6,10.1
	c0,0-3.4,6.9-4.2,11.5c0,0-2.1,6-3.2,8.1c0,0-4.2,4.8-4.9,10.6c0,0-2.8,8.3-2.1,11.5c0,0,3.2,4.1,4.4,4.8c0,0,1.8,1.9,2.3,2.6
	c0,0,4.4,3,5.5-3.5c0,0,1.2-5.1,2.6-7.4c0.2-0.7,2.8-5,3.2-6c0,0,2.6-2.6,2.1-8.8c0,0,1-4.3,2.6-5.1c0,0,3.7-1.9,3.5-6.2
	c0,0,2.3-3.9,3-4.9c0,0,2.6-3.7,3.9-4c0,0,8.1-4.4,9.5-16.3c0,0,0.7-1.6,1.6-1.8c0,0,1.8-1.7,1.9-3.7c0,0,4.9-5.1,5.3-6.5
	c0,0,6-13.1,10-17.5c0,0-4.6,17.5-5.8,24.9c0,0-0.9,2.3-1.8,4c0,0-5.4,7.8-7.8,17.5c0,0-0.5,3.2-1.4,5.1c0,0-3.2,2.5-3.4,9
	c0,0-0.2,4.6-3.9,8.8c0,0-1.6,1.6-3.5,3.2c0,0-4.1,2.8-5.1,5.1c0,0-1.1,2.8,1.8,6.7c0,0,3.7,2.3,7.9,12.7c0,0,4.4,7.2,10.6,8
	c0,0,4,1.9,2.6-5.3c0,0-2.1-13-1.8-18.3c0,0,1.1-2.7,2.8-3.5c0,0,2.8-2.8-0.4-3.9l-2.7-0.5c0,0,2.3-2.3,2.5-4.9c0,0,1.1-2.8,3-3.5
	c0,0,3.2-2.3,3.4-6.2l14.4-20.3c0,0,2.1-3,1.4-7.4c0,0,1.7-2.5,3.9-6.7c0,0,6-11,7.9-17.1c0,0,4.2-6.9,5.3-13.4
	c0,0,0.7-11.6,2.8-17.3c0,0,2.8-5.1,3.5-7.2c0,0,1.1-1.7-0.3-6.9c0,0,1.4-1.3,2.6-3.4c0,0,0.6-3,0.2-4.6l6.9-8.5c0,0,0.5,6,1.8,9.7
	c0,0,0,4.6,1.9,6.2c0,0,1.2,3.6,4.2,4.8c0,0,2.5,1.4,4.2,2.8c0,0,3.7,1.8,5.8-4.1c0,0,2.3-3.7,4.4-4.9c0,0,5.1-4.1,4.2-14.1
	c0-0.7,0.2-9.4,3.4-17.1c0,0,2.6-15.3-6-26.6c0,0-1.8-2.3,0-3.5c0,0,1.1-1.2,1.1-6.2c0,0-0.2-4.2,4-5.5c0,0,3.7-1.8,4.6-5.8
	c0,0,2.5-2.4,3.9-3.7l5-8.5L333.8,195.9z"/>
<polygon class="st2" points="212.4,197.7 172.3,204.4 200.2,239.1 182.7,283.5 233.7,245.3 256.4,254.7 248.7,216.2 277.9,169.1 
	240,183.5 223,165 "/>
<path class="st3" d="M180.8,417l-8.3,17.1l-2-1l7.3-15.2l-6.5-3.1l0.9-1.9L180.8,417z"/>
<path class="st3" d="M170.2,411.7l-9.5,16.5l-8.7-5l1-1.8l6.7,3.9l2.7-4.7l-6.7-3.9l1-1.8l6.7,3.9l3.6-6.3l-6.7-3.9l1-1.8
	L170.2,411.7z"/>
<path class="st3" d="M149.4,422l-2-1.4l4.3-14.2l-12.7,9l4.5-14.9l-12.1,8.5l-2-1.4l17.5-11.7l-4.6,14.8l12.6-9L149.4,422z"/>
<path class="st3" d="M139.5,390.7l-12.4,14.4l-1.7-1.5l12.4-14.4L139.5,390.7z"/>
<path class="st3" d="M122.2,389.1c-0.5-1.2-0.7-2.4-0.6-3.5c0.2-1.1,0.6-2,1.5-2.9c1.2-1.3,2.6-1.9,4.1-1.9c1.5,0,3,0.6,4.3,1.9
	c1.1,1,1.7,2.2,1.9,3.4c0.2,1.3-0.1,2.5-0.8,3.8l-2.2-0.7c0.6-1,0.9-2,0.8-2.8c0-0.9-0.4-1.6-1.1-2.3c-0.8-0.8-1.7-1.2-2.7-1.2
	c-1,0-1.8,0.4-2.5,1.1c-0.6,0.6-0.9,1.3-1,2.1c-0.1,0.8,0.1,1.7,0.5,2.7l1,2.3c0.5,1.3,0.7,2.4,0.6,3.4c-0.1,1-0.6,2-1.4,2.8
	c-0.9,1-2.1,1.4-3.4,1.4c-1.3-0.1-2.6-0.6-3.7-1.7c-0.8-0.8-1.4-1.7-1.6-2.6c-0.3-0.9-0.2-1.9,0.1-2.9l2.2,0.4
	c-0.2,0.8-0.2,1.5-0.1,2.2c0.1,0.6,0.4,1.2,0.9,1.6c0.6,0.6,1.3,0.9,2,0.9c0.8,0,1.4-0.3,2-0.9c0.5-0.5,0.7-1.1,0.8-1.7
	c0-0.6-0.1-1.4-0.5-2.3L122.2,389.1z"/>
<path class="st3" d="M119.9,371.4L105,383.2l-1.4-1.8l5.7-4.5L103,369l-5.7,4.5l-1.4-1.8l14.9-11.8l1.4,1.8l-7.5,5.9l6.3,7.9
	l7.5-5.9L119.9,371.4z"/>
<path class="st3" d="M88.5,362.2l11.9-18l1.3,2.1l-3.6,5.2l4,6.2l6.2-1.1l1.3,2.1L88.5,362.2z M92.7,359.5l7.5-1.2l-3.3-5.1
	L92.7,359.5z"/>
<path class="st3" d="M96.4,334.7l-9.5,11.4l12.6-3.7l1,2l-19.4,5.5l11.1-13l-17,1.1L91,325.6l1,2l-10.5,8L96.4,334.7z"/>
<path class="st3" d="M90.3,323.1l-17.6,7.2l-0.9-2.1l17.6-7.2L90.3,323.1z"/>
<path class="st3" d="M87.8,317l-18,6.3l-0.7-2.1l15.9-5.6l-2.4-6.8l2-0.7L87.8,317z"/>
<path class="st3" d="M83.5,303.9l-16.2,4.6l1.5,5.2l-2.1,0.6l-3.5-12.5l2.1-0.6l1.5,5.2l16.2-4.6L83.5,303.9z"/>
<path class="st3" d="M68.4,278.6c1.3-0.2,2.6-0.2,3.9,0c1.3,0.3,2.5,0.8,3.6,1.6c1.1,0.8,2,1.7,2.7,2.9c0.7,1.1,1.2,2.4,1.5,3.7
	c0.2,1.3,0.2,2.6,0,4c-0.3,1.3-0.8,2.5-1.5,3.6c-0.8,1.1-1.7,2-2.8,2.8c-1.1,0.7-2.3,1.2-3.6,1.4c-1.3,0.2-2.6,0.2-3.9,0
	c-1.3-0.3-2.5-0.8-3.6-1.6c-1.1-0.8-2-1.7-2.7-2.9c-0.7-1.1-1.2-2.4-1.4-3.7c-0.2-1.3-0.2-2.7,0-4c0.3-1.3,0.8-2.5,1.5-3.6
	c0.7-1.1,1.7-2,2.8-2.7C65.8,279.3,67,278.8,68.4,278.6z M77.9,287.1c-0.2-1-0.6-2-1.1-2.8c-0.6-0.9-1.3-1.6-2.2-2.2
	c-0.9-0.6-1.8-1-2.8-1.2c-1-0.2-2-0.2-3.1,0c-1,0.2-2,0.6-2.9,1.1c-0.9,0.6-1.6,1.3-2.2,2.1c-0.6,0.9-1,1.8-1.2,2.8
	c-0.2,1-0.2,2,0,3c0.2,1,0.6,2,1.1,2.8c0.6,0.9,1.3,1.6,2.1,2.2c0.9,0.6,1.8,1,2.8,1.2c1,0.2,2,0.2,3.1,0c1-0.2,2-0.6,2.8-1.1
	c0.9-0.5,1.6-1.3,2.2-2.1c0.6-0.9,1-1.8,1.2-2.8C78.1,289.2,78.1,288.2,77.9,287.1z"/>
<path class="st3" d="M77.4,273.7l-19.7,1.3L72,260.1L57.5,261l-0.1-2.2l19.7-1.3L63,272.4l14.3-0.9L77.4,273.7z"/>
<path class="st0" d="M76.9,242.6l-16.8-1.2l-0.4,5.4l-2.1-0.2l0.9-13l2.1,0.2l-0.4,5.3l16.8,1.2L76.9,242.6z"/>
<path class="st0" d="M77.7,232.9l-18.8-3.1l0.4-2.2l7.2,1.2l1.6-10l-7.2-1.2l0.4-2.3l18.8,3.1l-0.4,2.3l-9.4-1.5l-1.6,10l9.4,1.5
	L77.7,232.9z"/>
<path class="st0" d="M81,214.4l-18.4-4.8l2.5-9.7l2,0.5l-1.9,7.5l5.3,1.4l1.9-7.5l2,0.5l-1.9,7.5l7.1,1.8l1.9-7.5l2,0.5L81,214.4z"
	/>
<path class="st0" d="M88.9,183.4l2,0.8l-4.2,10.7l-3-5.5c-0.2-0.4-0.5-0.9-0.8-1.6c-2.3-4.2-4.1-6.6-5.4-7.1
	c-0.9-0.4-1.8-0.3-2.6,0.1c-0.8,0.4-1.4,1.1-1.9,2.2c-0.4,1.1-0.5,2.1-0.1,2.9c0.4,0.8,1.2,1.5,2.3,2l0.2,0.1l-0.8,2
	c-0.1,0-0.1-0.1-0.2-0.1c-0.1,0-0.2-0.1-0.2-0.1c-1.7-0.7-2.8-1.7-3.3-3c-0.5-1.3-0.5-2.9,0.2-4.6c0.7-1.7,1.6-2.9,2.9-3.5
	c1.2-0.6,2.6-0.6,4.2,0c1.1,0.4,2.1,1.2,3.1,2.3c0.9,1.1,2,2.9,3.1,5.3l1.9,4L88.9,183.4z"/>
<path class="st0" d="M95.7,175.1c-0.9,1.8-2.4,2.9-4.5,3.2s-4.5-0.3-7.3-1.6c-2.7-1.4-4.6-3-5.7-4.8c-1-1.8-1.1-3.7-0.2-5.5
	c0.9-1.9,2.4-2.9,4.5-3.2c2.1-0.3,4.5,0.3,7.3,1.6c2.8,1.4,4.7,3,5.7,4.8C96.6,171.4,96.6,173.3,95.7,175.1z M94,174.3
	c0.6-1.2,0.5-2.5-0.4-3.7c-0.9-1.2-2.5-2.5-4.9-3.6c-2.4-1.2-4.3-1.7-5.8-1.7c-1.5,0-2.6,0.7-3.2,1.9c-0.6,1.2-0.4,2.4,0.5,3.7
	c0.9,1.3,2.5,2.5,4.8,3.6c2.3,1.1,4.2,1.7,5.8,1.6C92.3,176.1,93.4,175.5,94,174.3z"/>
<path class="st0" d="M102.3,162l-14.4-8.7l-2,3.3l-1-2.1l2.5-4.1l16.1,9.8L102.3,162z"/>
<path class="st0" d="M112.1,147.5l-3.3-2.4l-5.3,7.2l-6.2-17.1l0.6-0.8l10.7,7.8l1.3-1.8l1.5,1.1l-1.3,1.8l3.3,2.4L112.1,147.5z
	 M107.3,144l-6.7-4.9l3.5,9.4L107.3,144z"/>
<path class="st0" d="M122,135.2l-13.9-13l6.9-7.3l1.5,1.4l-5.3,5.7l4,3.7l5.3-5.7l1.5,1.4l-5.3,5.7l6.8,6.4L122,135.2z"/>
<path class="st0" d="M131.2,125.7l-13.1-13.8l1.6-1.6l13.1,13.8L131.2,125.7z"/>
<path class="st0" d="M127.9,102.2l19.3,9.6l-1.9,1.6l-5.6-2.9l-5.7,4.8l1.8,6.1l-1.9,1.6L127.9,102.2z M131.1,106l2.2,7.3l4.6-3.9
	L131.1,106z"/>
<path class="st0" d="M154.8,106.5l-10.3-16l8.4-5.4l1.1,1.7l-6.5,4.2l2.9,4.6l6.5-4.2l1.1,1.8l-6.5,4.2l5.1,7.9L154.8,106.5z"/>
<path class="st0" d="M178.8,82.2c0.6,1.2,1,2.5,1.1,3.8c0.1,1.3-0.1,2.6-0.5,3.9c-0.4,1.3-1.1,2.4-2,3.4c-0.9,1-1.9,1.8-3.1,2.4
	c-1.2,0.6-2.5,1-3.8,1.1c-1.3,0.1-2.6,0-3.9-0.4c-1.3-0.4-2.4-1-3.4-1.9c-1-0.8-1.8-1.9-2.4-3.1c-0.6-1.2-1-2.5-1.1-3.8
	c-0.1-1.3,0.1-2.6,0.5-3.9c0.4-1.3,1.1-2.4,2-3.4c0.9-1,1.9-1.8,3.1-2.4c1.2-0.6,2.5-1,3.8-1.1c1.3-0.1,2.7,0,3.9,0.4
	c1.3,0.4,2.4,1,3.4,1.9C177.4,79.9,178.2,80.9,178.8,82.2z M173.3,93.8c0.9-0.5,1.7-1.1,2.4-1.9s1.2-1.7,1.5-2.7c0.3-1,0.4-2,0.4-3
	c-0.1-1-0.4-2-0.8-2.9c-0.5-0.9-1.1-1.8-1.9-2.4s-1.7-1.2-2.7-1.5c-1-0.3-2-0.4-3-0.4c-1,0.1-2,0.4-2.9,0.8
	c-0.9,0.5-1.7,1.1-2.4,1.9c-0.7,0.8-1.2,1.7-1.5,2.7c-0.3,1-0.4,2-0.4,3.1c0.1,1,0.4,2,0.9,3c0.5,0.9,1.1,1.7,1.9,2.4
	c0.8,0.7,1.7,1.2,2.7,1.5c1,0.3,2,0.5,3,0.4C171.4,94.5,172.4,94.3,173.3,93.8z"/>
<path class="st0" d="M186.2,89.5l-6.9-17.7l4.2-1.6c1.2-0.5,2.1-0.7,2.7-0.8c0.6-0.1,1.2,0,1.7,0.1c0.7,0.2,1.3,0.6,1.9,1.2
	c0.6,0.6,1,1.3,1.3,2.1c0.6,1.5,0.6,2.7,0.1,3.8s-1.6,1.9-3.1,2.5l-0.4,0.1l10,5.8l-2.7,1l-9.7-5.9l-0.3,0.1l3.3,8.5L186.2,89.5z
	 M182,72.8l2.3,5.9l1.6-0.6c1.6-0.6,2.7-1.3,3.1-1.9c0.4-0.6,0.4-1.5,0-2.5c-0.4-1.1-1-1.8-1.8-2.1c-0.8-0.2-1.9,0-3.5,0.6L182,72.8
	z"/>
<path class="st0" d="M207.8,82.9l-9.4-11.6l1.2,13.1l-2.1,0.6l-1.6-20.1l10.6,13.4l2.2-16.9l9,18l-2.1,0.6l-5.8-11.8L207.8,82.9z"/>
<path class="st0" d="M217,60.2l2.3-0.4l1.9,11.7c0.3,1.9,0.9,3.2,1.9,4c1,0.8,2.3,1,4,0.7c1.7-0.3,2.9-0.9,3.6-1.9
	c0.7-1,0.8-2.5,0.5-4.4l-1.9-11.7l2.3-0.4l1.9,11.7c0.4,2.5,0.1,4.5-0.9,6c-1,1.5-2.7,2.4-5.2,2.8c-2.4,0.4-4.3,0-5.8-1
	c-1.4-1.1-2.3-2.9-2.7-5.4L217,60.2z"/>
<path class="st0" d="M238.7,76.4l-1.4-19l2.3-0.2l1.2,16.8l7.2-0.5l0.2,2.2L238.7,76.4z"/>
<path class="st0" d="M256.6,55.9l8.5,19.8l-2.5,0l-2.4-5.8l-7.4,0l-2.5,5.8l-2.5,0L256.6,55.9z M256.5,60.9l-3.1,7l6.1,0L256.5,60.9
	z"/>
<path class="st0" d="M294.9,70.1c-0.2,1.3-0.7,2.6-1.3,3.7c-0.7,1.1-1.6,2.1-2.7,2.8c-1.1,0.8-2.3,1.3-3.6,1.6
	c-1.3,0.3-2.6,0.3-4,0.1c-1.3-0.2-2.6-0.7-3.7-1.4c-1.1-0.7-2.1-1.6-2.9-2.7c-0.8-1.1-1.4-2.3-1.7-3.5c-0.3-1.3-0.4-2.6-0.1-3.9
	c0.2-1.3,0.7-2.6,1.4-3.7c0.7-1.1,1.6-2.1,2.7-2.8c1.1-0.8,2.3-1.3,3.6-1.6s2.6-0.3,4-0.1c1.3,0.2,2.6,0.7,3.7,1.4
	c1.2,0.7,2.1,1.6,2.9,2.6c0.8,1.1,1.4,2.2,1.7,3.5C295,67.4,295.1,68.7,294.9,70.1z M283.6,76.2c1,0.2,2,0.1,3-0.1
	c1-0.2,1.9-0.7,2.8-1.3c0.9-0.6,1.5-1.4,2.1-2.2c0.5-0.9,0.9-1.8,1-2.9c0.2-1.1,0.1-2.1-0.1-3.1c-0.2-1-0.7-1.9-1.3-2.8
	c-0.6-0.9-1.4-1.5-2.2-2.1c-0.9-0.5-1.8-0.9-2.9-1c-1-0.2-2.1-0.1-3.1,0.1c-1,0.2-1.9,0.7-2.7,1.3c-0.9,0.6-1.5,1.4-2.1,2.3
	c-0.5,0.9-0.9,1.8-1.1,2.9c-0.2,1-0.1,2.1,0.1,3c0.2,1,0.7,1.9,1.3,2.8c0.6,0.9,1.4,1.6,2.2,2.1C281.6,75.7,282.6,76.1,283.6,76.2z"
	/>
<path class="st0" d="M296.4,80.2l5.4-19l9.2,18.4l4-13.9l2.1,0.6l-5.4,19l-9.3-18.3l-3.9,13.7L296.4,80.2z"/>
<path class="st0" d="M315.7,86.1l6.9-17.7L332,72l-0.7,1.9l-7.2-2.8l-2,5.1l7.2,2.8l-0.8,2l-7.2-2.8l-2.6,6.8l7.2,2.8l-0.8,2
	L315.7,86.1z"/>
<path class="st0" d="M335.2,94.3l9.2-16.7l3.2,1.8c2.4,1.3,4,2.3,4.8,3.1c0.8,0.8,1.5,1.6,1.9,2.6c0.6,1.3,0.8,2.6,0.6,4
	c-0.1,1.4-0.6,2.9-1.4,4.4c-0.8,1.5-1.8,2.7-2.9,3.5c-1.1,0.9-2.4,1.4-3.7,1.6c-1,0.2-2.1,0.1-3.1-0.2c-1.1-0.3-2.6-0.9-4.5-2
	l-0.7-0.4L335.2,94.3z M338.2,93.5l1.3,0.7c2,1.1,3.5,1.8,4.4,2.1c0.9,0.3,1.7,0.3,2.5,0.2c1-0.2,1.9-0.6,2.8-1.3s1.6-1.6,2.2-2.8
	c0.6-1.2,1-2.3,1.2-3.4c0.1-1.1,0-2.1-0.4-3.1c-0.3-0.7-0.8-1.4-1.5-2c-0.7-0.6-2.1-1.5-4.1-2.6l-1.3-0.7L338.2,93.5z"/>
<path class="st0" d="M351.6,103.7l10.6-15.8l3.7,2.5c1.1,0.7,1.8,1.3,2.2,1.7c0.4,0.5,0.7,0.9,0.9,1.5c0.2,0.7,0.3,1.4,0.1,2.2
	s-0.5,1.6-1,2.3c-0.9,1.3-1.9,2-3.1,2.2c-1.2,0.2-2.5-0.2-3.8-1.1l-0.3-0.2l0.9,11.6l-2.4-1.6l-0.7-11.4l-0.3-0.2l-5.1,7.5
	L351.6,103.7z M363,90.7l-3.6,5.3l1.4,1c1.5,1,2.6,1.5,3.3,1.4c0.8,0,1.4-0.5,2.1-1.5c0.7-1,0.9-1.9,0.7-2.6
	c-0.2-0.7-1.1-1.6-2.5-2.6L363,90.7z"/>
<path class="st0" d="M363,111.7l11.5-15.1l1.8,1.4L364.8,113L363,111.7z"/>
<path class="st0" d="M371.9,119.8l6.8-20.2l1.9,1.6l-5.3,14.7l13.7-7.4l1.8,1.6L371.9,119.8z"/>
<path class="st0" d="M379.5,125.7l13.6-13.3l7,7.1l-1.5,1.4l-5.4-5.5l-3.9,3.8l5.4,5.5l-1.5,1.5l-5.4-5.5l-5.2,5.1l5.4,5.5l-1.5,1.5
	L379.5,125.7z"/>
<path class="st0" d="M388.9,135.4l14.5-12.3l2.9,3.4c0.8,1,1.4,1.7,1.6,2.3s0.4,1.1,0.4,1.7c0,0.7-0.1,1.4-0.5,2.1
	c-0.4,0.7-0.9,1.4-1.6,1.9c-1.2,1-2.4,1.4-3.6,1.3c-1.2-0.1-2.3-0.9-3.4-2.1l-0.3-0.3l-2.3,11.4l-1.8-2.2l2.5-11.1l-0.2-0.2
	l-6.9,5.8L388.9,135.4z M403.4,126.1l-4.9,4.1l1.1,1.3c1.1,1.4,2.1,2.1,2.8,2.3s1.5-0.1,2.4-0.9c0.9-0.8,1.4-1.6,1.4-2.4
	c0-0.8-0.6-1.8-1.7-3.2L403.4,126.1z"/>
<path class="st0" d="M410.3,145.6c0.3,1.3,0.3,2.5-0.1,3.5c-0.3,1-1,1.9-2,2.6c-1.4,1-2.9,1.4-4.4,1.1c-1.5-0.3-2.8-1.2-3.9-2.7
	c-0.9-1.2-1.3-2.5-1.3-3.7c0-1.3,0.5-2.5,1.5-3.6l2,1.1c-0.8,0.9-1.2,1.8-1.3,2.6c-0.1,0.9,0.1,1.7,0.7,2.5c0.7,0.9,1.5,1.5,2.4,1.7
	c0.9,0.2,1.8,0,2.7-0.6c0.7-0.5,1.1-1.1,1.4-1.9c0.2-0.8,0.2-1.7,0-2.7l-0.5-2.5c-0.3-1.3-0.3-2.5,0-3.5s0.9-1.8,1.9-2.5
	c1.1-0.8,2.3-1,3.6-0.7c1.3,0.3,2.4,1.1,3.3,2.3c0.7,0.9,1,1.9,1.1,2.8c0.1,1-0.1,1.9-0.6,2.8l-2.1-0.8c0.3-0.8,0.5-1.5,0.5-2.1
	c0-0.6-0.2-1.2-0.6-1.8c-0.5-0.7-1.1-1.1-1.9-1.2c-0.7-0.1-1.4,0-2.1,0.5c-0.5,0.4-0.9,0.9-1.1,1.5c-0.2,0.6-0.1,1.4,0.1,2.3
	L410.3,145.6z"/>
<path class="st0" d="M415.5,149.9l7.3-1.7l0.5,2.3l-7.5,1L415.5,149.9z"/>
<path class="st0" d="M429.5,159.8l1,2.2l-10.6,10.3l15.5-1.7l-11.2,10.8l14.7-1.5l1,2.2l-21,1.7l11.2-10.7l-15.4,1.7L429.5,159.8z"
	/>
<path class="st0" d="M437.9,207.3c-1.3,0.4-2.6,0.6-3.9,0.4s-2.5-0.5-3.7-1.1c-1.2-0.6-2.2-1.5-3.1-2.5c-0.9-1-1.5-2.2-1.9-3.5
	c-0.4-1.3-0.6-2.6-0.4-3.9c0.1-1.3,0.5-2.6,1.1-3.8c0.6-1.2,1.4-2.2,2.4-3.1c1-0.8,2.1-1.5,3.4-1.9c1.3-0.4,2.6-0.6,3.9-0.4
	c1.3,0.1,2.6,0.5,3.7,1.1c1.2,0.6,2.2,1.5,3,2.5c0.9,1,1.5,2.2,1.9,3.5c0.4,1.3,0.6,2.6,0.5,4c-0.1,1.3-0.4,2.6-1,3.8
	c-0.6,1.2-1.4,2.2-2.4,3.1C440.4,206.3,439.2,206.9,437.9,207.3z M427.4,200c0.3,1,0.8,1.9,1.5,2.7c0.7,0.8,1.5,1.4,2.4,1.9
	c0.9,0.5,1.9,0.8,2.9,0.9c1,0.1,2,0,3-0.3c1-0.3,1.9-0.8,2.7-1.5c0.8-0.7,1.4-1.5,1.9-2.4c0.5-0.9,0.8-1.9,0.9-2.9c0.1-1,0-2-0.3-3
	c-0.3-1-0.8-1.9-1.5-2.7c-0.7-0.8-1.5-1.4-2.4-1.9c-0.9-0.5-1.9-0.8-3-0.9s-2,0-3.1,0.4c-1,0.3-1.9,0.8-2.7,1.5
	c-0.8,0.7-1.4,1.4-1.9,2.4c-0.5,1-0.8,1.9-0.9,2.9C427,198,427.1,199,427.4,200z"/>
<path class="st0" d="M429.5,213.4l18.6-3.9l0.9,4.4c0.3,1.2,0.4,2.2,0.4,2.8c0,0.6-0.2,1.2-0.4,1.7c-0.3,0.6-0.8,1.2-1.5,1.6
	c-0.7,0.5-1.4,0.8-2.3,1c-1.5,0.3-2.8,0.1-3.7-0.6c-1-0.7-1.6-1.9-2-3.5l-0.1-0.4l-7.4,9l-0.6-2.8l7.5-8.6l-0.1-0.3l-8.9,1.9
	L429.5,213.4z M446.7,212.1l-6.2,1.3l0.4,1.7c0.4,1.7,0.8,2.8,1.4,3.3s1.4,0.6,2.5,0.4c1.2-0.2,2-0.7,2.3-1.4c0.4-0.7,0.4-1.9,0-3.6
	L446.7,212.1z"/>
<path class="st0" d="M432.1,227l18.8-2.5l0.3,2.2l-16.7,2.2l1,7.1l-2.1,0.3L432.1,227z"/>
<path class="st0" d="M433.7,238.7l19-0.9l0.2,3.6c0.1,2.7,0.1,4.6-0.1,5.7c-0.2,1.1-0.6,2.1-1.2,3c-0.8,1.1-1.8,2-3.1,2.6
	c-1.3,0.6-2.8,1-4.5,1.1c-1.7,0.1-3.2-0.1-4.5-0.6c-1.3-0.5-2.4-1.3-3.3-2.3c-0.7-0.8-1.2-1.7-1.5-2.8c-0.3-1-0.5-2.7-0.6-4.9l0-0.8
	L433.7,238.7z M435.9,240.8l0.1,1.4c0.1,2.3,0.3,3.9,0.5,4.8c0.2,0.9,0.6,1.6,1.2,2.2c0.7,0.7,1.6,1.3,2.6,1.7
	c1,0.4,2.2,0.5,3.6,0.4c1.3-0.1,2.5-0.3,3.5-0.8c1-0.5,1.8-1.1,2.4-1.9c0.5-0.6,0.8-1.4,1-2.3c0.2-0.9,0.2-2.5,0.1-4.8l-0.1-1.4
	L435.9,240.8z"/>
<path class="st0" d="M446.9,281.9c1.1-0.8,1.9-1.7,2.5-2.7s0.9-2.1,1-3.3c0.1-1,0-2-0.3-3c-0.3-1-0.8-1.9-1.4-2.6
	c-0.7-0.8-1.5-1.4-2.3-1.9c-0.9-0.5-1.9-0.7-3-0.9c-0.9-0.1-1.7-0.1-2.5,0.1c-0.8,0.1-1.5,0.4-2.1,0.8c-1.2,0.6-2.1,1.5-2.8,2.5
	c-0.7,1-1.1,2.2-1.2,3.5c-0.1,1.2,0,2.4,0.4,3.4c0.4,1.1,1,2.1,1.9,3.1l-3-0.3c-0.6-1-1-2.1-1.2-3.2c-0.2-1.1-0.3-2.3-0.2-3.4
	c0.1-1,0.3-2,0.7-2.9c0.4-0.9,0.9-1.8,1.6-2.5c1.1-1.3,2.4-2.2,3.8-2.8c1.5-0.6,3-0.8,4.7-0.6c1.5,0.1,2.8,0.5,3.9,1.1
	c1.1,0.6,2.2,1.5,3,2.6c0.8,1.1,1.4,2.2,1.8,3.4c0.3,1.2,0.4,2.5,0.3,3.9c-0.1,1.1-0.4,2.1-0.8,3.1c-0.4,1-1.1,2-1.9,2.9
	L446.9,281.9z"/>
<path class="st0" d="M431.9,283.8l18.6,3.9l-0.5,2.2l-7.2-1.5l-2.1,9.9l7.2,1.5l-0.5,2.2l-18.6-3.9l0.5-2.3l9.3,2l2.1-9.9l-9.3-2
	L431.9,283.8z"/>
<path class="st0" d="M444.9,313.8l-21.5,2.3l0.7-2.3l6.3-0.6l2.2-7.1l-4.8-4.1l0.7-2.3L444.9,313.8z M440.1,312.3l-5.8-5l-1.8,5.8
	L440.1,312.3z"/>
<path class="st0" d="M418.7,325.3l14.9-0.2l-11-7.2l0.8-2l16.8,11.1l-17.1,0.1l12,12.2l-19.7-4l0.8-2l12.9,2.7L418.7,325.3z"/>
<path class="st0" d="M420.2,343.4l-7.5-4.1l1.1-1.9l16.6,9.2l-1.9,3.5c-0.7,1.2-1.2,2.1-1.7,2.6c-0.4,0.5-0.9,0.9-1.5,1.1
	c-0.7,0.3-1.4,0.4-2.2,0.4c-0.8-0.1-1.6-0.3-2.4-0.8c-0.8-0.4-1.5-1-1.9-1.7s-0.8-1.4-0.9-2.1c-0.1-0.6,0-1.2,0.2-1.9
	c0.2-0.6,0.6-1.6,1.3-2.8l0.3-0.6L420.2,343.4z M422,344.4l-0.6,1c-0.9,1.7-1.4,2.9-1.3,3.8c0.1,0.8,0.6,1.5,1.6,2
	c1.1,0.6,2,0.7,2.7,0.3c0.8-0.4,1.6-1.4,2.5-3l0.6-1L422,344.4z"/>
<path class="st0" d="M407.2,348.9l16.1,10.1l-1.2,1.9L406,350.8L407.2,348.9z"/>
<path class="st0" d="M399.8,375.7c-1.1-0.8-2-1.8-2.6-2.9c-0.7-1.1-1.1-2.4-1.2-3.7c-0.2-1.3-0.1-2.6,0.3-4c0.3-1.3,0.9-2.5,1.7-3.6
	s1.8-2,2.9-2.6c1.2-0.7,2.4-1.1,3.7-1.3c1.3-0.2,2.6-0.2,3.9,0.2c1.3,0.3,2.4,0.9,3.5,1.7c1.1,0.8,2,1.8,2.6,2.9s1.1,2.4,1.3,3.7
	c0.2,1.3,0.1,2.6-0.3,3.9c-0.3,1.3-0.9,2.5-1.7,3.6c-0.8,1.1-1.8,2-2.9,2.7c-1.2,0.7-2.4,1.2-3.7,1.4c-1.3,0.2-2.6,0.2-3.9-0.2
	C402.1,377.1,400.9,376.5,399.8,375.7z M399.6,362.9c-0.6,0.8-1.1,1.7-1.3,2.7c-0.2,1-0.3,2-0.1,3.1c0.1,1,0.5,2,1,2.9
	c0.5,0.9,1.2,1.6,2,2.3c0.9,0.6,1.8,1.1,2.8,1.4c1,0.3,2,0.3,3.1,0.2c1-0.2,2-0.5,2.9-1s1.6-1.2,2.3-2c0.6-0.8,1.1-1.8,1.3-2.8
	c0.3-1,0.3-2,0.1-3c-0.2-1-0.5-2-1-2.9c-0.5-0.9-1.2-1.6-2.1-2.3c-0.8-0.6-1.8-1.1-2.7-1.3c-1-0.3-2-0.3-3.1-0.2
	c-1.1,0.2-2,0.5-2.9,1C401,361.4,400.3,362,399.6,362.9z"/>
<path class="st0" d="M390.1,372.4l14.3,13.7l-20.6-0.5l10.4,10l-1.5,1.6l-14.3-13.7l20.5,0.3l-10.3-9.9L390.1,372.4z"/>
</svg>
