<?xml version="1.0" encoding="utf-8"?>
<!-- Generator: Adobe Illustrator 19.2.0, SVG Export Plug-In . SVG Version: 6.00 Build 0)  -->
<svg version="1.1" id="Ebene_4" xmlns="http://www.w3.org/2000/svg" xmlns:xlink="http://www.w3.org/1999/xlink" x="0px" y="0px"
	 viewBox="0 0 500 500" style="enable-background:new 0 0 500 500;" xml:space="preserve">
<style type="text/css">
	.st0{fill:#00A19B;}
	.st1{fill:#FFFFFF;}
	.st2{fill:#999999;}
	.st3{fill:#019893;}
</style>
<g>
	<polygon class="st0" points="292.9,155.6 251.8,159.5 277.5,196.8 256.5,240.4 311,205.5 333.3,216.6 328.4,177 361.5,131.5 
		322,143.3 306,123.3 	"/>
</g>
<g>
	<path class="st1" d="M343.4,197.9c10,16.1,13.9,12.4,26.8,34.4c5.4,9.2,5.6,15.2,6.1,20.8c0.5,6.5-0.4,18.9-0.9,13.8
		c-4.4-15.3-12.9-24.4-17.7-29c-4.9-4.6-12-11-14.6-22.1C341.8,210.9,343,197.1,343.4,197.9z"/>
	<path class="st1" d="M378.5,237.1c1.2,2.5,4.4,10,4.6,8.3c0.3-1.5,0.6-2.8,1-3.9c3.5-10.5,12.8-9.4,14.6-22.8
		c1.4-10.1-11.3-29.1-11.4-28c-2,10.3-10.7,10.8-13.2,18.2C371.9,215.4,371.4,221.7,378.5,237.1z"/>
	<path class="st1" d="M381.2,292.5c0.3,1.2,0.7-2.5,3.5-5.8c2.2-2.5,6.4-4.3,9.9-5.7c8.1-3.2,12.7-8.1,14.6-17.2
		c2.2-10.2,1.9-23-3.2-32.7c-0.8-1.5-1.7-2.9-2.7-4.3c-0.4-0.6-1.6-2.1-1.3-1.2c1.4,6.4,2.4,12.1-1.6,17.1
		c-3.9,4.8-9.6,3.3-14.2,11.5C381.5,262.5,380.6,290.3,381.2,292.5z"/>
	<path class="st1" d="M351.5,241.1c0,0,1.5,10.9-0.6,18.8c-6.7,25.7,15.7,45.3,16.8,47c0.2,0.5,6.1-21.8,2.2-35.9
		C367,260.3,358.5,247.6,351.5,241.1z"/>
	<path class="st1" d="M407.8,288.9c0.1,8.3-3.8,15.2-7.9,20.6c-4.1,5.5-15.1,10.4-24.1,13.4c-9,3-11.5,5.9-13.4,8.3
		c2.6-8,5.6-13.2,9.2-21.8c2-4.2,3.9-9,10.3-13.8C388.3,290.9,399.2,291.6,407.8,288.9z"/>
	<path class="st1" d="M396.5,322.8c0,0-3.4,19.1-14.8,30.3c-11,10.8-46.8,13-46,12.7c8.8-4.6,11-8.1,15.6-15.7
		c4.6-7.7,8-11.6,16-12.3C375.3,337,391.1,337.5,396.5,322.8z"/>
	<path class="st1" d="M303.3,383.7c-2.3,1.9-5.9,5.3-3.7,4c9.7-4.5,28.7,4.3,39.7,4c11-0.3,22.3-13.4,26.8-18.8
		c2.9-3.5,2.8-4.5,1.8-3.7c-10.7,9.6-25.4-1-38.8,1.1C320.3,371.7,305.8,381.7,303.3,383.7z"/>
	<path class="st1" d="M283.5,381.2c2.9-2.5,14.3-7.9,25.3-10.6c24-5.7,29-16.1,29-25.7c0-0.3-7.2,3.3-29,5.2
		C292.6,351.6,284.1,371.7,283.5,381.2z"/>
	<path class="st1" d="M333.3,399.1c-1.1-0.1-9.6,4.4-29.2-3.5c-25.8-10.3-37.4,0.6-36.2,0.6c1.2-0.1,11.4,1.3,31.6,12.4
		C319.2,419.6,334.3,399.2,333.3,399.1z"/>
	<path class="st1" d="M290.8,417.4c-6.2-4-21.3-18.3-37.9-19.7c-16.5-1.4-29.5-7.1-30-7.2c8.3,11.9,13.2,19.4,26.8,25.5
		C264,422.5,284.5,418.7,290.8,417.4z"/>
	<path class="st1" d="M221.7,384.4c-1.3-0.5,15.2-12.5,24.3-15.2c17.6-5.2,21,4.3,38.1-13.3c-0.1,10.2-5.2,23.6-15.9,30.2
		C253.8,395,229.9,387.8,221.7,384.4z"/>
	<path class="st1" d="M187.6,380.5c-2.1-0.5-4.3-1.7-4.5-1.5c-0.2,0.1,0.7,3,1,4.1c1.7,8.2,5.9,17.3,15.4,25.1
		c7.7,6.3,13.6,6.9,23.4,7.7c6.1,0.5,10.4,1.8,17.2,4.9c0.7,0.3,2.3,1.3,2.4,1.1c0.1-0.2-2-1.5-2.7-2.1c-7.4-5.5-11.5-15-18-22.7
		c-4.2-5-10.9-10-18-13C200.3,382.6,192.7,381.6,187.6,380.5z"/>
	<path class="st1" d="M276.7,108.1c-0.3-0.1-11.9,6.3-20.6,4.4c-19.3-4.1-31.2,19.7-30.8,19.9c0.3,0.1,12.9-5.3,24.3-2.1
		C265.7,134.9,277,108.2,276.7,108.1z"/>
	<path class="st1" d="M355.5,171.2c0.2,0.1,1.9,10.7,7.4,15.6c12.3,10.8,2.9,29.7,2.6,29.5c-0.2-0.1-3-11-10.8-16.9
		C343.7,191.1,355.3,171.1,355.5,171.2z"/>
	<path class="st1" d="M264.2,147.1c0,0-9.7,0.4-18.4-4.2c-8.8-4.6-23.7-2.8-32,0.4c-8.4,3.3-13.8,6.3-18.8,9.5
		c-4.9,3.2,5.7-2.1,13.6-2c4.8,0.1,15.6,4.6,21.5,5.5C235.8,157.2,249.3,156.6,264.2,147.1z"/>
	<path class="st1" d="M226.1,101.3c-0.2-0.1-7.7,7.4-18.5,9.8c-19.9,4.5-15.2,35.2-13.2,34.6C228.8,134.3,226.2,101.5,226.1,101.3z"
		/>
	<path class="st1" d="M213.9,157.9c0,0-3.3,5.3-13.8,3.7c-10.6-1.6-16.2-3.9-26,3.5c-9.9,7.3-14.3,18.5-14.3,18.5s13.1-6.3,26.2-2.8
		C199,184.4,217.1,177.9,213.9,157.9z"/>
	<path class="st1" d="M160.1,170.3c0,0,17.1-8.6,22.1-20.3c4-9.3,2.4-20,3.7-29c0.3-2.4,2.1-6.4,1.8-6.7c-0.3-0.2-6.1,7.8-19.7,16
		C150.7,140.6,155.7,156.2,160.1,170.3z"/>
	<path class="st1" d="M138.6,199.3c3.7-5.2,8.7-10.7,10.4-18.4c1.3-5.7-0.1-12-0.4-17.5c-0.5-8.1-0.2-14.7,2-16
		c0,0-35.1-8.9-17.9,62.9C133.4,208.5,135.4,203.9,138.6,199.3z"/>
	<path class="st1" d="M192.9,186.5c0,0-8.8,3.6-17.8,2.9c-10.4-0.8-30.4,2.8-40.7,37.3c3.1-4.4,8.3-10.8,15.4-13.9
		c8.3-3.6,18.8-3.7,24.8-7.1C185.8,199.5,192.9,186.5,192.9,186.5z"/>
	<path class="st1" d="M112.3,197.6c3.9-4.6,7.1-8.7,7.5-10.4c0,0,5.8,12,4.7,28.7c-1.1,16.8-8,18.8-5.7,28.3
		c-6.3-6.1-16.5-18.9-15.9-30.4C103.3,207.9,108.2,202.5,112.3,197.6z"/>
	<path class="st1" d="M171.5,212.6c0,0-4,6.1-23,12.8c-18.9,6.7-21.4,26.9-22,30.5c6.9-8.6,13-12.2,23.4-15.6
		C160.3,236.9,174,233.3,171.5,212.6z"/>
	<path class="st1" d="M156.3,245.4c0,0,0.4,6.5-14.8,8.5c-15.1,2-22.7,8.4-12.7,33.5c2.7-8.1,8.4-12.9,18.4-19
		C157.3,262.3,158.5,254.5,156.3,245.4z"/>
	<path class="st1" d="M120.7,291.4c0,0-2.8-6.8-2.4-21.7c0.4-14.9-15.1-27.1-16.2-32.9c-3.6,9.7-13.1,9.7-10,25.7
		C95.1,278.4,117.5,290.2,120.7,291.4z"/>
	<path class="st1" d="M99.3,299.8c-1.3,3.6-1.1,8.1,0.8,12.6c1.6-0.9,3.4-1.7,5.3-2.2L121,306c-8.8-15.4-22.8-22.3-22.8-22.3
		S102.1,291.6,99.3,299.8z"/>
</g>
<g>
	<path class="st2" d="M357.3,309.6l-24.1-57.2c-3.5-8.4-13.4-12.3-22-8.6l-16.6,7c-8.6,3.6-12.8,13.4-9.2,21.8l13.3,31.5l22.5-7.8
		l4.9-1.7l0.3,5.1c0.3,4.9-2.2,10.3-4.1,13.7c5.9,4.8,9.1,9.3,9.3,9.5l3,4.2l-20.8,7.2c-0.3,0.1-0.6,0.2-0.9,0.2
		c4.7,4.8,12.1,6.5,18.8,3.7l16.6-7C356.7,327.8,360.9,318,357.3,309.6z"/>
	<path class="st2" d="M137.6,395.2l-0.3-5.2c0-0.3-0.3-5.9,1.4-13.2c-3.6-1.5-8.9-4.2-11.7-8.2l-2.9-4.2l28.6-9.9l-8.9-33
		c-2.4-8.8-11.6-13.9-20.7-11.5l-17.4,4.7c-9,2.4-14.5,11.5-12.1,20.4l16.2,59.9c2.4,8.8,11.6,14,20.7,11.5l17.4-4.7
		c7-1.9,11.8-7.8,12.5-14.4c-0.2,0.1-0.5,0.2-0.7,0.3L137.6,395.2z"/>
	<path class="st2" d="M233.7,354.4c0,0-19.1,6.6-37.6,12.9l0.2,0.1c0,0,2.4-0.1,4.3,4.5c0.1,0.3,0.6,1.7,2,1.2l1.4-0.5l9.3-3.1
		c0,0,1,2.3,5.8,0.7c3.3-1.2,8.8-2.9,17.9-6.1c9.2-3.2,14.6-5.1,17.9-6.3c4.8-1.6,4.2-4.1,4.2-4.1l9.2-3.3l1.4-0.5
		c1.4-0.5,0.9-1.9,0.8-2.2c-1.4-4.7,0.6-6.2,0.6-6.2l0.1-0.2C252.3,348,233.7,354.4,233.7,354.4z"/>
	<path class="st2" d="M209.5,284.1c11.2-3.9,22.8-2.6,22.8-2.6c-2.1,1.2-4.9,5.8-4.3,11.4c0.7,5.6,2.2,16-3.3,18.8
		c0,0-3.1,1.3-5.1,1.9c-2,0.7-5.2,1.6-5.2,1.6c-6.1,1.3-11.2-7.9-14.2-12.7c-2.9-4.8-7.9-6.7-10.3-6.4
		C189.9,296.1,198.3,288,209.5,284.1z"/>
	<path class="st2" d="M322.5,300.1l-47,16.2c0,0-2.1,7.9-7.4,9.7c-2.4,0.8-76.5,26.4-78.9,27.2c-5.3,1.8-11.8-3.1-11.8-3.1l-47,16.2
		c3.5,5.2,13.1,8,13.1,8c-2.6,8.5-2.2,15.5-2.2,15.5l14.7-5l0.8-0.3l1.8-0.6c0.6-0.2,0.9-0.8,0.7-1.4l-0.3-0.9l-0.2-0.7l-1.5-4.2
		l75.2-25.9l76.6-26.4l1.1,3.2l0.3,0.8l0.6,1.8c0.2,0.6,0.8,0.9,1.4,0.7l0.9-0.3l0.7-0.2l14.3-4.9c0,0-4-5.7-11.3-10.8
		C317,314.5,322.8,306.4,322.5,300.1z"/>
	<g>
		<path class="st2" d="M195.8,272.5c4.1-0.1,6,2.1,12,0.8c6.7-1.6,7.7-4.5,10.8-5.8c2.3-1,4.9-0.7,7.1,2.2c-3-7.4-9-12.8-20.3-10.8
			c-11.3,2.3-14.5,10.1-15.1,17.1C191.4,273.7,194.4,272.5,195.8,272.5z"/>
	</g>
	<g>
		<path class="st2" d="M175.3,236l1.3,3.8l0.1,0.4l0.1,0.3c0.1,0.2,0.3,0.3,0.4,0.2l0.3-0.1l0.6-0.2l11.5-4l1,0.5l1.6,4.6
			c-4,2.5-4,7.2-4.1,11.6l0,1.8c0,0-0.1,2.9-0.1,2.9c-0.1,2.1,0,4.4,1.4,5.9c3.2-4.9,8.2-8,15-9.4c2.8-0.5,5.5-0.6,7.9-0.4
			c-0.4-1.3-1.3-2.5-2.3-3.6c0,0-1.9-2.3-1.9-2.3l0,0c-3.2-3.9-6.8-8.2-11.5-8.1l-1.6-4.7l0.5-1l11.7-4l0.4-0.1l0.2-0.1
			c0.2-0.1,0.3-0.2,0.2-0.4l-0.1-0.3l-0.2-0.6l-1.3-3.8l-0.2-0.5l0-0.1c-0.1-0.2-0.3-0.3-0.4-0.2l-0.2,0.1l-0.7,0.3l-8.6,2.9
			l-1.3-0.6l-9.8,3.4l-0.7,1.3l-8.8,3l-0.4,0.1l-0.2,0.1c-0.2,0.1-0.3,0.2-0.2,0.4l0.1,0.3L175.3,236z"/>
		<path class="st2" d="M285.1,283.9l-1-2.3v0l-3.1-7.3c-0.1-0.3-0.2-0.5-0.3-0.8l0,0l-10-29.1l-0.9-2.6c-0.2-0.6-0.8-0.9-1.4-0.7
			l-0.9,0.3l-0.7,0.2l-45,15.5c0.3,0.2,0.6,0.4,0.9,0.6c2.2,1.7,4.1,4,5.6,6.7l39.3-13.5c0.2-0.1,0.4,0,0.4,0.2l1.3,3.8
			c0.1,0.2,0,0.4-0.2,0.4l-38.8,13.4c0.9,2.5,1.6,5.3,2,8.3c2.5,0.3,5.4,0.8,8.7,1.9c-1.8,1.4-3.7,2.8-5.5,4.7
			c-1.3,1.3-3.5,4.7-3,8.7l0.1,0.9c0.6,5,1.6,13.3-1.8,18.7l7,20.3l5.2-1.8c-0.8-2.3-3.1-9.1-5.2-15c3.8,1.9,11.7,3.9,16.1,11.2
			l12.8-4.4c2.5-0.8,4.3-5.1,4.9-7l0.5-2l5.6-1.9l1.8-0.6c0.6-0.2,0.9-0.8,0.7-1.4l-0.3-0.9l0,0l-0.2-0.7c-1.4-4.2-2.9-8.3-3.6-10.5
			c-1.4-3.9,3.2-8.1,7.3-10.8l1.4-0.9C285.3,285.2,285.4,284.6,285.1,283.9z M274.5,279.2c-0.9,2.7-1.8,3.6-4,4.3
			c-1,0.3-8.7,3-18,6.2l-0.1,0c-0.2,0.1-0.4,0-0.4-0.2l0,0c-0.1-0.2-1.6-4.5-2.4-6.8c-2.1-6,1.2-7,1.9-7.2
			c0.5-0.2,21.9-7.5,21.9-7.5c0.2-0.1,0.4,0,0.4,0.2l2.8,8.2C275.8,277,275,277.9,274.5,279.2z"/>
		<path class="st2" d="M196.8,305.6l-0.5-0.8c-2.1-3.4-5.8-4.8-7.6-5c-2.5-0.4-4.9-0.3-7.2-0.3c1.7-2.6,3.5-4.6,5.1-6.2
			c7.1-7,13.8-10.6,13.8-10.6s-2.2-3-7-2c-3.7,0.7-5.5,5.7-6.3,9.2c0-0.1,0-0.1,0-0.1c-0.1-0.2-0.8-2.4-1.2-5.7l-39.8,13.7
			c-0.2,0.1-0.4,0-0.4-0.2l-1.3-3.8c-0.1-0.2,0-0.4,0.2-0.4l40.9-14.1c-0.1-3.1,0.2-6.6,1.3-9.9l-46.3,15.9l-0.8,0.3l-1.8,0.6
			c-0.6,0.2-0.9,0.8-0.7,1.4l0.3,0.9l10.6,30.8c0,0,0.1,0.6,0.2,0.8l2.5,9.2c0,0,0,0,0,0l0.2,0.8c0.2,0.7,0.6,1.1,1.2,1.1l1.1-0.1
			c5-0.4,11.6-0.1,13,4c0.7,2.1,2.1,6.2,3.6,10.3l0.2,0.6l0.4,1.2c0.2,0.6,0.8,0.9,1.4,0.7l0.9-0.3l0.7-0.2l2.6-0.9l2-0.7l1.7,1.2
			c1.6,1.2,5.7,3.4,8.2,2.5l14-4.8c-0.9-7.5,2.9-13.4,5.1-17.2c1.9,5.6,4,11.7,4.8,13.9l5.2-1.8l-6.9-20.2
			C203.9,317.3,199.5,310,196.8,305.6z M179,315.1c0,0-15.8,5.5-16.8,5.8c-2.2,0.7-3.4,0.6-5.8-1c-1.1-0.7-2.4-0.9-3.4-0.9l-2.8-8.2
			c-0.1-0.2,0-0.4,0.2-0.4c0,0,20.3-7,20.5-7.1c0.7-0.2,3.8-1.5,5.9,4.5c0.8,2.2,2.2,6.5,2.3,6.7C179.2,314.5,179.2,315,179,315.1z"
			/>
	</g>
</g>
<g>
	<g>
		<path class="st1" d="M82.9,329.3l-9.4,9.5l11.5-2.4l0.7,1.8L68,341.7l10.8-10.8l-15.3-0.2l15.1-9.8l0.7,1.8l-9.9,6.3L82.9,329.3z"
			/>
		<path class="st1" d="M78.2,318.6l-16.3,5l-2.6-8.6l1.8-0.5l2,6.7l4.7-1.4l-2-6.7l1.8-0.6l2,6.7l6.2-1.9l-2-6.7l1.8-0.6L78.2,318.6
			z"/>
		<path class="st1" d="M74.7,306.9l-16.6,3.9l-0.9-3.9c-0.3-1.1-0.4-1.9-0.4-2.5c0-0.5,0.1-1.1,0.3-1.5c0.3-0.6,0.7-1.1,1.3-1.5
			c0.6-0.4,1.3-0.7,2.1-0.9c1.4-0.3,2.5-0.2,3.4,0.4c0.9,0.6,1.5,1.6,1.8,3.1l0.1,0.4l6.4-8.2l0.6,2.5l-6.5,7.9l0.1,0.3l7.9-1.8
			L74.7,306.9z M59.3,308.5l5.6-1.3l-0.4-1.5c-0.4-1.5-0.8-2.5-1.3-3c-0.5-0.4-1.3-0.5-2.3-0.3c-1.1,0.2-1.8,0.7-2.1,1.3
			c-0.3,0.6-0.3,1.7,0.1,3.2L59.3,308.5z"/>
		<path class="st1" d="M57.1,283c-0.8,0.9-1.3,1.9-1.6,2.9c-0.3,1-0.3,2-0.2,3.1c0.1,0.9,0.4,1.7,0.9,2.5c0.5,0.8,1.1,1.5,1.8,2
			c0.8,0.5,1.6,0.9,2.5,1.1c0.9,0.2,1.8,0.2,2.8,0.1c0.8-0.1,1.5-0.3,2.1-0.6c0.6-0.3,1.2-0.7,1.7-1.1c0.9-0.8,1.5-1.8,1.8-2.8
			c0.4-1.1,0.5-2.2,0.3-3.3c-0.2-1.1-0.5-2-1.1-2.9c-0.6-0.9-1.4-1.6-2.4-2.2l2.7-0.4c0.7,0.7,1.3,1.6,1.8,2.5
			c0.5,0.9,0.8,1.9,0.9,2.9c0.1,0.9,0.1,1.8,0,2.7s-0.4,1.7-0.8,2.5c-0.7,1.4-1.6,2.5-2.7,3.3c-1.1,0.8-2.5,1.4-4,1.6
			c-1.3,0.2-2.5,0.2-3.6-0.1c-1.1-0.3-2.2-0.8-3.2-1.6c-1-0.7-1.7-1.6-2.3-2.6c-0.6-1-0.9-2.1-1.1-3.3c-0.1-1-0.1-1.9,0-2.9
			c0.2-1,0.5-1.9,1-2.9L57.1,283z"/>
		<path class="st1" d="M69.7,278l-17,1.1l-0.6-9l1.8-0.1l0.5,6.9l4.9-0.3l-0.5-6.9l1.9-0.1l0.5,6.9l6.5-0.4l-0.5-6.9l1.9-0.1
			L69.7,278z"/>
		<path class="st1" d="M69,265.9l-17-0.2l0-3.3c0-2.4,0.2-4.1,0.4-5.1c0.3-1,0.7-1.8,1.3-2.6c0.8-1,1.7-1.7,2.9-2.2
			c1.2-0.5,2.5-0.7,4.1-0.7c1.5,0,2.9,0.3,4,0.8c1.2,0.5,2.1,1.3,2.9,2.3c0.6,0.8,1,1.6,1.2,2.6c0.2,1,0.3,2.4,0.3,4.4l0,0.7
			L69,265.9z M67.1,263.8l0-1.3c0-2.1,0-3.5-0.2-4.4c-0.2-0.8-0.5-1.5-0.9-2c-0.6-0.7-1.3-1.2-2.2-1.6c-0.9-0.4-2-0.6-3.2-0.6
			c-1.2,0-2.2,0.2-3.2,0.5c-0.9,0.3-1.7,0.9-2.3,1.6c-0.5,0.5-0.8,1.2-1,2c-0.2,0.8-0.3,2.3-0.3,4.3l0,1.3L67.1,263.8z"/>
		<path class="st1" d="M69.4,249l-17-1.6l0.8-9l1.8,0.2l-0.6,6.9l4.9,0.5L60,239l1.9,0.2l-0.6,6.9l6.5,0.6l0.6-6.9l1.9,0.2L69.4,249
			z"/>
		<path class="st1" d="M62.3,229.2c0.6-1,1.4-1.7,2.3-2.2c0.9-0.4,1.8-0.6,2.9-0.4c1.5,0.2,2.7,0.9,3.5,2.1c0.8,1.1,1.1,2.5,0.8,4.1
			c-0.2,1.3-0.7,2.4-1.6,3.2s-1.9,1.2-3.2,1.4l-0.6-2c1.1-0.1,1.9-0.4,2.5-0.8c0.6-0.5,1-1.1,1.1-2c0.2-1,0-1.9-0.5-2.6
			c-0.5-0.7-1.2-1.1-2.1-1.3c-0.8-0.1-1.4,0-2.1,0.3c-0.6,0.3-1.2,0.9-1.7,1.7l-1.2,1.9c-0.6,1-1.4,1.8-2.2,2.2
			c-0.8,0.4-1.8,0.6-2.8,0.4c-1.2-0.2-2.1-0.8-2.8-1.8c-0.6-1-0.8-2.2-0.6-3.6c0.2-1,0.5-1.9,1.1-2.5c0.5-0.7,1.3-1.1,2.2-1.4
			l0.8,1.8c-0.7,0.3-1.3,0.6-1.7,1s-0.6,0.9-0.7,1.5c-0.1,0.8,0,1.4,0.4,2c0.4,0.6,0.9,0.9,1.6,1c0.6,0.1,1.1,0,1.6-0.3
			c0.5-0.3,1-0.8,1.4-1.5L62.3,229.2z"/>
		<path class="st1" d="M75,215.4l-14.6-3.9l-1.2,4.7l-1.9-0.5l3-11.3l1.9,0.5l-1.2,4.6l14.6,3.9L75,215.4z"/>
		<path class="st1" d="M77.3,206.9l-16.1-5.7l0.7-1.9l6.2,2.2l3-8.5l-6.2-2.2l0.7-1.9l16.1,5.7l-0.7,1.9l-8.1-2.9l-3,8.5L78,205
			L77.3,206.9z"/>
		<path class="st1" d="M83.2,191.1l-15.6-7l3.7-8.2l1.7,0.8l-2.8,6.4l4.5,2l2.8-6.4l1.7,0.8l-2.8,6.4l6,2.7l2.8-6.4l1.7,0.8
			L83.2,191.1z"/>
		<path class="st3" d="M94.6,164.7l1.7,1l-5.2,8.9l-1.9-5.3c-0.1-0.3-0.3-0.9-0.5-1.5c-1.4-4-2.7-6.4-3.8-7.1
			c-0.8-0.4-1.5-0.5-2.3-0.3c-0.8,0.3-1.4,0.8-1.9,1.7c-0.5,0.9-0.7,1.8-0.5,2.6c0.2,0.8,0.8,1.5,1.8,2.1l0.2,0.1l-1,1.6
			c0,0-0.1-0.1-0.2-0.1c-0.1,0-0.2-0.1-0.2-0.1c-1.4-0.8-2.2-1.9-2.5-3.1c-0.3-1.3,0-2.6,0.8-4.1c0.8-1.4,1.8-2.3,3-2.7
			c1.2-0.4,2.4-0.2,3.7,0.5c0.9,0.5,1.7,1.4,2.4,2.5c0.7,1.1,1.4,2.8,2.1,5.1l1.1,3.8L94.6,164.7z"/>
		<path class="st3" d="M101.7,158.3c-1,1.5-2.5,2.3-4.4,2.2c-1.9,0-4-0.8-6.2-2.4c-2.3-1.6-3.7-3.2-4.4-5c-0.7-1.8-0.5-3.4,0.5-4.9
			c1.1-1.5,2.5-2.3,4.4-2.3c1.9,0,4,0.8,6.2,2.4c2.3,1.6,3.8,3.2,4.5,5C103,155.1,102.8,156.7,101.7,158.3z M100.3,157.3
			c0.7-1,0.7-2.2,0.1-3.4c-0.6-1.2-1.9-2.5-3.8-3.8c-1.9-1.3-3.6-2.1-5-2.2c-1.4-0.2-2.4,0.3-3.1,1.3c-0.7,1-0.7,2.1,0,3.4
			s1.9,2.5,3.8,3.8c1.9,1.3,3.5,2,4.9,2.2C98.6,158.7,99.7,158.3,100.3,157.3z"/>
		<path class="st3" d="M109.3,147.4l-11.8-9.5l-2.2,2.7l-0.7-2l2.7-3.4l13.1,10.6L109.3,147.4z"/>
		<path class="st3" d="M119.7,135.5L117,133l-5.5,5.8l-3.6-15.9l0.6-0.6l8.7,8.2l1.4-1.5l1.2,1.1l-1.4,1.5l2.7,2.5L119.7,135.5z
			 M115.8,131.9l-5.4-5.1l2,8.8L115.8,131.9z"/>
		<path class="st1" d="M129.8,125.7l-11.1-13l6.8-5.8l1.2,1.4l-5.3,4.5l3.2,3.7l5.3-4.5l1.2,1.4l-5.3,4.5l5.5,6.4L129.8,125.7z"/>
		<path class="st1" d="M139,118.1l-10.4-13.5l1.6-1.2l10.4,13.5L139,118.1z"/>
		<path class="st1" d="M138.2,96.8l16.4,10.3l-1.8,1.2l-4.8-3.1l-5.5,3.8l1.1,5.6l-1.8,1.2L138.2,96.8z M140.7,100.5l1.3,6.7
			l4.5-3.1L140.7,100.5z"/>
		<path class="st1" d="M161.8,102.9l-8-15l7.9-4.2l0.9,1.6l-6.1,3.3l2.3,4.3l6.1-3.3l0.9,1.7l-6.1,3.3l4,7.4L161.8,102.9z"/>
		<path class="st1" d="M184.9,82.7c0.5,1.1,0.7,2.3,0.7,3.4c0,1.2-0.2,2.3-0.7,3.4c-0.5,1.1-1.1,2.1-2,3c-0.9,0.9-1.8,1.5-2.9,2
			c-1.1,0.5-2.3,0.7-3.5,0.7c-1.2,0-2.4-0.2-3.5-0.6c-1.1-0.4-2.1-1.1-3-1.9c-0.8-0.8-1.5-1.8-2-2.9c-0.5-1.1-0.7-2.3-0.7-3.4
			c0-1.2,0.2-2.3,0.7-3.4c0.5-1.1,1.1-2.1,2-2.9c0.9-0.9,1.8-1.5,2.9-2c1.1-0.5,2.3-0.7,3.5-0.8c1.2,0,2.4,0.2,3.5,0.6
			c1.1,0.4,2.1,1.1,2.9,1.9C183.8,80.6,184.4,81.5,184.9,82.7z M179.3,92.7c0.9-0.4,1.6-0.9,2.2-1.5c0.6-0.7,1.1-1.4,1.5-2.3
			c0.4-0.9,0.5-1.8,0.5-2.7c0-0.9-0.2-1.8-0.6-2.7c-0.4-0.9-0.9-1.6-1.6-2.3c-0.7-0.7-1.4-1.2-2.3-1.5c-0.9-0.4-1.8-0.5-2.7-0.5
			c-0.9,0-1.8,0.2-2.7,0.6c-0.9,0.4-1.6,0.9-2.3,1.5c-0.6,0.7-1.1,1.4-1.5,2.3c-0.4,0.9-0.5,1.8-0.5,2.7c0,0.9,0.2,1.8,0.6,2.7
			c0.4,0.9,0.9,1.6,1.5,2.3c0.6,0.6,1.4,1.1,2.3,1.5c0.9,0.4,1.8,0.5,2.7,0.5C177.5,93.3,178.4,93.1,179.3,92.7z"/>
		<path class="st1" d="M191.1,89.6l-5.3-16.2l3.8-1.2c1.1-0.4,1.9-0.5,2.4-0.6c0.5,0,1.1,0,1.5,0.2c0.6,0.2,1.1,0.6,1.6,1.2
			c0.5,0.5,0.8,1.2,1.1,2c0.4,1.3,0.4,2.5-0.1,3.4c-0.5,0.9-1.5,1.6-2.9,2.1l-0.3,0.1l8.7,5.7l-2.4,0.8l-8.4-5.8l-0.3,0.1L193,89
			L191.1,89.6z M188.3,74.4l1.8,5.4l1.5-0.5c1.5-0.5,2.5-1,2.8-1.6c0.4-0.6,0.4-1.3,0.1-2.3c-0.3-1-0.8-1.7-1.5-1.9
			c-0.7-0.2-1.7-0.1-3.2,0.3L188.3,74.4z"/>
		<path class="st1" d="M210.8,84.7l-7.9-10.8l0.5,11.8l-1.9,0.4l-0.6-18.1l9,12.4l2.7-15.1l7.3,16.5l-1.9,0.4l-4.7-10.8L210.8,84.7z
			"/>
		<path class="st1" d="M219.9,64.8l2-0.3l1.3,10.5c0.2,1.7,0.7,2.9,1.6,3.6c0.8,0.7,2,1,3.6,0.8c1.6-0.2,2.6-0.7,3.3-1.6
			c0.6-0.9,0.8-2.2,0.6-3.9l-1.3-10.5l2-0.3l1.3,10.5c0.3,2.3,0,4.1-1,5.3c-0.9,1.3-2.5,2-4.7,2.3c-2.2,0.3-3.9-0.1-5.1-1.1
			c-1.2-1-2-2.6-2.3-4.9L219.9,64.8z"/>
		<path class="st1" d="M238.8,79.9l-0.8-17l2-0.1l0.7,15.1l6.4-0.3l0.1,1.9L238.8,79.9z"/>
		<path class="st1" d="M255.2,61.8l7.4,17.9l-2.2,0l-2.1-5.3l-6.7-0.1l-2.3,5.2l-2.2,0L255.2,61.8z M255.1,66.3l-2.8,6.2l5.4,0.1
			L255.1,66.3z"/>
		<path class="st1" d="M289.4,74.7c-0.2,1.2-0.6,2.3-1.2,3.3c-0.6,1-1.4,1.8-2.4,2.5c-1,0.7-2.1,1.2-3.2,1.5
			c-1.2,0.3-2.4,0.3-3.6,0.1c-1.2-0.2-2.3-0.6-3.3-1.2c-1-0.6-1.9-1.4-2.6-2.4c-0.7-1-1.2-2-1.5-3.2c-0.3-1.1-0.3-2.3-0.1-3.5
			c0.2-1.2,0.6-2.3,1.2-3.3c0.6-1,1.4-1.9,2.4-2.6c1-0.7,2-1.2,3.2-1.4c1.2-0.3,2.4-0.3,3.5-0.1c1.2,0.2,2.3,0.6,3.4,1.2
			c1,0.6,1.9,1.4,2.6,2.4c0.7,1,1.2,2,1.5,3.2C289.5,72.3,289.6,73.5,289.4,74.7z M279.3,80.3c0.9,0.1,1.8,0.1,2.7-0.1
			c0.9-0.2,1.7-0.6,2.5-1.2c0.8-0.6,1.4-1.2,1.9-2c0.5-0.8,0.8-1.6,0.9-2.6c0.1-0.9,0.1-1.9-0.1-2.8c-0.2-0.9-0.6-1.7-1.1-2.5
			c-0.6-0.8-1.2-1.4-2-1.9c-0.8-0.5-1.6-0.8-2.6-0.9c-0.9-0.1-1.9-0.1-2.7,0.1c-0.9,0.2-1.7,0.6-2.5,1.2c-0.8,0.6-1.4,1.2-1.9,2
			c-0.5,0.8-0.8,1.7-0.9,2.6c-0.1,0.9-0.1,1.8,0.1,2.7c0.2,0.9,0.6,1.7,1.2,2.5c0.6,0.8,1.2,1.4,2,1.9
			C277.5,79.8,278.3,80.1,279.3,80.3z"/>
		<path class="st1" d="M290.9,83.8l4.6-17.1l8.5,16.4l3.3-12.5l1.9,0.5l-4.6,17.1L296,71.9l-3.3,12.4L290.9,83.8z"/>
		<path class="st1" d="M308.3,88.8l5.7-16.1l8.5,3l-0.6,1.7l-6.6-2.3l-1.6,4.6l6.6,2.3l-0.6,1.8l-6.6-2.3l-2.2,6.2l6.6,2.3l-0.6,1.8
			L308.3,88.8z"/>
		<path class="st1" d="M344.2,90.1c-0.3-1.2-0.8-2.1-1.5-2.9c-0.6-0.8-1.5-1.4-2.5-1.9c-0.8-0.4-1.7-0.6-2.6-0.7
			c-0.9-0.1-1.8,0.1-2.7,0.4c-0.9,0.3-1.7,0.8-2.3,1.4c-0.7,0.6-1.2,1.4-1.7,2.3c-0.4,0.7-0.6,1.4-0.7,2.1c-0.1,0.7-0.1,1.4,0,2
			c0.2,1.2,0.6,2.2,1.3,3.1c0.7,0.9,1.5,1.6,2.5,2.1c1,0.5,2,0.7,3,0.7c1,0,2.1-0.2,3.2-0.7l-1.2,2.4c-1,0.2-2.1,0.2-3.1,0
			c-1-0.2-2-0.5-2.9-0.9c-0.8-0.4-1.5-0.9-2.2-1.5c-0.6-0.6-1.2-1.3-1.6-2.1c-0.7-1.3-1.1-2.7-1.1-4.1c0-1.4,0.3-2.8,1-4.2
			c0.6-1.2,1.3-2.1,2.2-2.9c0.9-0.8,1.9-1.3,3.1-1.7c1.2-0.4,2.3-0.5,3.4-0.4s2.3,0.4,3.4,1c0.9,0.4,1.7,1,2.4,1.7s1.3,1.5,1.8,2.5
			L344.2,90.1z"/>
		<path class="st1" d="M360.5,105.3c-0.6,1-1.5,1.9-2.4,2.6c-1,0.7-2,1.1-3.2,1.4s-2.4,0.3-3.6,0.1c-1.2-0.2-2.3-0.6-3.3-1.3
			c-1-0.6-1.9-1.5-2.6-2.4c-0.7-1-1.2-2.1-1.5-3.2c-0.3-1.2-0.3-2.3-0.1-3.5c0.2-1.2,0.6-2.2,1.3-3.3c0.7-1,1.5-1.9,2.4-2.6
			c1-0.7,2-1.1,3.2-1.4c1.2-0.2,2.3-0.3,3.5,0c1.2,0.2,2.3,0.6,3.3,1.3c1,0.6,1.9,1.5,2.6,2.4c0.7,1,1.2,2,1.5,3.2
			c0.3,1.2,0.3,2.3,0.1,3.5C361.5,103.2,361.1,104.3,360.5,105.3z M349,106.4c0.8,0.5,1.6,0.8,2.5,1c0.9,0.2,1.8,0.1,2.8-0.1
			c0.9-0.2,1.8-0.6,2.5-1.1c0.7-0.5,1.4-1.2,1.9-2c0.5-0.8,0.8-1.7,1-2.6s0.1-1.8-0.1-2.7c-0.2-0.9-0.6-1.8-1.1-2.5
			c-0.5-0.7-1.2-1.4-2-1.9c-0.8-0.5-1.7-0.8-2.6-1c-0.9-0.2-1.8-0.1-2.7,0.1c-0.9,0.2-1.8,0.6-2.5,1.1c-0.8,0.5-1.4,1.2-1.9,2
			c-0.5,0.8-0.8,1.6-1,2.5c-0.2,0.9-0.1,1.8,0.1,2.7c0.2,0.9,0.6,1.8,1.1,2.5S348.2,105.9,349,106.4z"/>
		<path class="st1" d="M358.2,114.2l11-13.9l1.4,18.4l8-10.2l1.5,1.2l-11,13.9l-1.4-18.3l-7.9,10.1L358.2,114.2z"/>
		<path class="st1" d="M383.3,123c0.5,1.1,0.7,2.1,0.5,3.1c-0.1,1-0.6,1.8-1.3,2.6c-1.1,1.1-2.3,1.7-3.7,1.8c-1.4,0-2.7-0.5-3.9-1.7
			c-1-0.9-1.6-1.9-1.8-3.1c-0.2-1.1,0-2.3,0.7-3.4l2,0.6c-0.5,0.9-0.8,1.8-0.7,2.6c0.1,0.8,0.4,1.5,1,2c0.7,0.7,1.5,1,2.4,1
			c0.9,0,1.6-0.3,2.3-1c0.5-0.6,0.8-1.2,0.9-1.9c0.1-0.7-0.1-1.5-0.5-2.4l-0.9-2.1c-0.5-1.1-0.7-2.1-0.6-3.1
			c0.1-0.9,0.5-1.8,1.2-2.5c0.8-0.9,1.8-1.3,3-1.3c1.2,0,2.3,0.5,3.3,1.5c0.7,0.7,1.2,1.5,1.5,2.3c0.2,0.8,0.2,1.7,0,2.6l-2-0.4
			c0.2-0.7,0.2-1.4,0.1-2c-0.1-0.6-0.4-1-0.8-1.4c-0.6-0.5-1.2-0.8-1.8-0.8c-0.7,0-1.3,0.3-1.7,0.8c-0.4,0.4-0.6,1-0.7,1.5
			s0.1,1.3,0.5,2L383.3,123z"/>
		<path class="st1" d="M383,136.2l11-10.3l-3.3-3.5l1.4-1.3l8,8.5l-1.4,1.3l-3.3-3.5l-11,10.3L383,136.2z"/>
		<path class="st1" d="M389,142.7l13.2-10.8l2.5,3.1c0.7,0.9,1.2,1.6,1.4,2.1c0.2,0.5,0.4,1,0.4,1.5c0,0.6-0.1,1.3-0.5,1.9
			c-0.3,0.6-0.8,1.2-1.4,1.7c-1.1,0.9-2.1,1.3-3.2,1.1c-1.1-0.1-2.1-0.8-3-2l-0.2-0.3l-2.2,10.2l-1.6-2l2.3-10l-0.2-0.2l-6.3,5.2
			L389,142.7z M402.1,134.5l-4.4,3.6l1,1.2c1,1.2,1.8,1.9,2.5,2.1c0.7,0.2,1.4-0.1,2.2-0.7c0.8-0.7,1.3-1.4,1.3-2.1
			c0-0.7-0.5-1.7-1.5-2.9L402.1,134.5z"/>
		<path class="st1" d="M410.8,142.6l1.2,1.7l-8.7,6c-1.4,1-2.2,2-2.5,3.1s0.1,2.2,1,3.5c0.9,1.3,1.9,2,3,2.1
			c1.1,0.1,2.3-0.3,3.7-1.3l8.7-6l1.2,1.7l-8.7,6c-1.9,1.3-3.6,1.8-5.2,1.6c-1.6-0.3-3-1.3-4.2-3.1c-1.3-1.8-1.7-3.5-1.4-5.1
			s1.4-3,3.3-4.3L410.8,142.6z"/>
		<path class="st1" d="M424.4,172c0.4-1.1,0.5-2.2,0.4-3.2c-0.1-1-0.4-2-1-3c-0.4-0.8-1-1.5-1.8-2c-0.7-0.6-1.5-1-2.4-1.2
			c-0.9-0.2-1.8-0.3-2.7-0.2c-0.9,0.1-1.8,0.4-2.7,0.9c-0.7,0.4-1.3,0.8-1.8,1.3c-0.5,0.5-0.9,1.1-1.2,1.7c-0.5,1.1-0.7,2.2-0.7,3.3
			c0,1.1,0.3,2.2,0.9,3.2c0.5,0.9,1.2,1.7,2.1,2.3s1.9,1,3,1.2l-2.3,1.3c-1-0.4-1.8-1-2.6-1.7c-0.8-0.7-1.4-1.5-1.9-2.4
			c-0.4-0.8-0.8-1.6-0.9-2.5c-0.2-0.9-0.2-1.8-0.2-2.7c0.1-1.5,0.6-2.9,1.4-4c0.8-1.2,1.8-2.2,3.1-2.9c1.1-0.6,2.3-1,3.4-1.2
			c1.2-0.1,2.3,0,3.5,0.3c1.2,0.3,2.2,0.9,3.1,1.6c0.9,0.7,1.6,1.6,2.2,2.7c0.5,0.9,0.8,1.8,1,2.7c0.2,1,0.2,2,0.1,3.1L424.4,172z"
			/>
		<path class="st1" d="M415.6,183.9l13.7-6.3l-2-4.4l1.8-0.8L434,183l-1.8,0.8l-2-4.4l-13.7,6.3L415.6,183.9z"/>
		<path class="st1" d="M432.9,204.1c-1.1,0.4-2.3,0.6-3.5,0.6c-1.2,0-2.3-0.3-3.4-0.8c-1.1-0.5-2-1.2-2.9-2.1
			c-0.8-0.9-1.4-1.9-1.9-3c-0.4-1.1-0.6-2.3-0.6-3.5c0-1.2,0.3-2.4,0.8-3.5c0.5-1.1,1.2-2.1,2-2.9c0.9-0.8,1.8-1.4,3-1.8
			c1.1-0.4,2.3-0.6,3.5-0.6c1.2,0.1,2.3,0.3,3.4,0.9c1.1,0.5,2,1.2,2.8,2.1c0.8,0.9,1.4,1.9,1.8,3c0.4,1.1,0.6,2.3,0.6,3.5
			c0,1.2-0.3,2.4-0.8,3.4c-0.5,1.1-1.2,2-2,2.8C435.1,203,434,203.6,432.9,204.1z M423.1,198c0.3,0.9,0.8,1.6,1.4,2.3
			c0.6,0.7,1.4,1.2,2.2,1.6c0.9,0.4,1.7,0.6,2.7,0.6c0.9,0,1.8-0.1,2.7-0.4c0.9-0.3,1.7-0.8,2.4-1.4c0.7-0.6,1.2-1.4,1.6-2.2
			c0.4-0.9,0.6-1.7,0.6-2.7c0-0.9-0.1-1.8-0.4-2.7c-0.3-0.9-0.8-1.7-1.4-2.3c-0.6-0.7-1.4-1.2-2.2-1.6c-0.9-0.4-1.8-0.6-2.7-0.6
			c-0.9,0-1.8,0.1-2.7,0.5c-0.9,0.3-1.7,0.8-2.3,1.4c-0.7,0.6-1.2,1.4-1.6,2.2c-0.4,0.9-0.6,1.8-0.7,2.7
			C422.7,196.2,422.8,197.1,423.1,198z"/>
		<path class="st1" d="M425.6,209.9l16.5-4.5l1,3.9c0.3,1.1,0.5,1.9,0.5,2.5c0,0.5-0.1,1.1-0.3,1.5c-0.2,0.6-0.7,1.1-1.2,1.6
			c-0.6,0.4-1.2,0.8-2,1c-1.3,0.4-2.5,0.3-3.4-0.3c-0.9-0.6-1.6-1.6-1.9-3l-0.1-0.3l-6.1,8.4l-0.7-2.5l6.2-8.1l-0.1-0.3l-7.8,2.1
			L425.6,209.9z M441,207.8l-5.5,1.5l0.4,1.5c0.4,1.5,0.9,2.5,1.4,2.9c0.5,0.4,1.3,0.5,2.3,0.2c1.1-0.3,1.7-0.8,2-1.4
			c0.3-0.6,0.2-1.7-0.2-3.2L441,207.8z"/>
		<path class="st1" d="M439.3,226.2c-0.2,1.2-0.7,2.1-1.4,2.8s-1.5,1.2-2.6,1.4c-1.5,0.3-2.9,0.1-4-0.7c-1.1-0.8-1.9-2-2.2-3.6
			c-0.3-1.3-0.1-2.5,0.3-3.5c0.5-1,1.3-1.8,2.5-2.4l1.3,1.6c-1,0.4-1.7,1-2.1,1.7c-0.4,0.7-0.5,1.4-0.4,2.3c0.2,1,0.6,1.7,1.3,2.2
			c0.7,0.5,1.5,0.7,2.4,0.5c0.7-0.1,1.4-0.5,1.8-1c0.5-0.5,0.8-1.3,1-2.2l0.5-2.2c0.2-1.2,0.7-2.2,1.3-2.8c0.6-0.7,1.4-1.1,2.5-1.3
			c1.2-0.2,2.3,0,3.2,0.7c1,0.7,1.6,1.8,1.8,3.1c0.2,1,0.2,1.9-0.1,2.7c-0.3,0.8-0.8,1.5-1.5,2.1l-1.4-1.4c0.6-0.5,1-1,1.2-1.5
			c0.2-0.5,0.3-1.1,0.2-1.7c-0.1-0.7-0.5-1.3-1.1-1.7c-0.6-0.4-1.2-0.5-1.9-0.4c-0.6,0.1-1.1,0.4-1.4,0.9c-0.4,0.5-0.6,1.1-0.8,1.9
			L439.3,226.2z"/>
		<path class="st1" d="M441.9,231.6l6.6,1.3l-0.4,2.1l-6.5-1.9L441.9,231.6z"/>
		<path class="st1" d="M449.7,244.6l0.1,2.2l-12.4,4.7l13.3,4.1l-13.1,4.9l12.7,4l0.1,2.2l-17.9-6.1l13-4.8l-13.3-4.1L449.7,244.6z"
			/>
		<path class="st1" d="M440.1,286.8c-1.2-0.1-2.3-0.4-3.4-1c-1-0.5-1.9-1.3-2.7-2.2c-0.8-0.9-1.3-2-1.7-3.1
			c-0.4-1.2-0.5-2.3-0.4-3.5c0.1-1.2,0.4-2.3,1-3.4c0.5-1.1,1.3-2,2.2-2.8c0.9-0.8,1.9-1.4,3-1.7c1.1-0.4,2.3-0.5,3.5-0.4
			c1.2,0.1,2.3,0.4,3.4,1c1,0.5,1.9,1.3,2.7,2.2c0.8,0.9,1.3,2,1.7,3.1c0.4,1.2,0.5,2.3,0.4,3.5c-0.1,1.2-0.4,2.4-1,3.4
			c-0.5,1.1-1.3,2-2.2,2.8c-0.9,0.8-1.9,1.4-3,1.7C442.5,286.7,441.3,286.9,440.1,286.8z M433.9,277.1c-0.1,0.9,0,1.8,0.3,2.7
			c0.3,0.9,0.7,1.7,1.3,2.4c0.6,0.7,1.3,1.3,2.1,1.7c0.8,0.4,1.7,0.7,2.6,0.8c1,0.1,1.9,0,2.8-0.3c0.9-0.3,1.7-0.7,2.4-1.3
			c0.7-0.6,1.3-1.3,1.7-2.1c0.4-0.8,0.7-1.7,0.8-2.6c0.1-0.9,0-1.9-0.3-2.7c-0.3-0.9-0.7-1.7-1.3-2.4c-0.6-0.7-1.3-1.3-2.2-1.7
			c-0.8-0.4-1.7-0.7-2.7-0.8c-0.9-0.1-1.8,0-2.7,0.3c-0.9,0.3-1.7,0.7-2.4,1.3c-0.7,0.6-1.3,1.3-1.7,2.1
			C434.2,275.3,433.9,276.1,433.9,277.1z"/>
		<path class="st1" d="M431,288.9l16.8,3l-0.7,3.9c-0.2,1.1-0.4,1.9-0.6,2.4c-0.2,0.5-0.5,0.9-0.9,1.3c-0.5,0.4-1.1,0.7-1.8,0.9
			c-0.7,0.2-1.5,0.2-2.2,0c-1.4-0.2-2.4-0.8-2.9-1.7c-0.6-0.9-0.7-2.1-0.5-3.6l0.1-0.4l-9.1,5l0.5-2.5l9.1-4.7l0.1-0.3l-8-1.4
			L431,288.9z M445.8,293.6l-5.6-1l-0.3,1.5c-0.3,1.6-0.3,2.6,0,3.2c0.3,0.6,1,1,2,1.2c1.1,0.2,1.9,0.1,2.4-0.4
			c0.5-0.5,0.9-1.5,1.2-3L445.8,293.6z"/>
		<path class="st1" d="M428.7,301.3l16.6,4l-0.5,2l-14.7-3.6l-1.5,6.3l-1.9-0.5L428.7,301.3z"/>
		<path class="st1" d="M426.2,311.5l16.2,5.3l-1,3.1c-0.7,2.3-1.4,3.9-1.9,4.8s-1.2,1.6-2,2.1c-1,0.7-2.2,1.1-3.4,1.2
			c-1.3,0.1-2.6-0.1-4.1-0.5c-1.4-0.5-2.6-1.1-3.6-2c-1-0.8-1.6-1.8-2.1-3c-0.3-0.9-0.4-1.8-0.4-2.8c0.1-1,0.4-2.4,1-4.3l0.2-0.7
			L426.2,311.5z M427.4,314.1l-0.4,1.2c-0.6,2-1,3.4-1.1,4.2c-0.1,0.8,0,1.6,0.3,2.2c0.3,0.8,0.9,1.6,1.6,2.2
			c0.8,0.6,1.7,1.1,2.8,1.5c1.1,0.4,2.2,0.5,3.2,0.5c1-0.1,1.8-0.3,2.6-0.8c0.6-0.4,1.1-0.9,1.5-1.6c0.4-0.7,1-2.1,1.6-4l0.4-1.2
			L427.4,314.1z"/>
		<path class="st1" d="M423.9,352c1.1-0.4,2.1-0.9,2.9-1.5s1.4-1.5,1.9-2.5c0.4-0.8,0.6-1.7,0.6-2.6c0-0.9-0.1-1.8-0.4-2.7
			c-0.3-0.9-0.8-1.6-1.4-2.3c-0.6-0.7-1.4-1.2-2.3-1.6c-0.7-0.3-1.4-0.6-2.1-0.7c-0.7-0.1-1.4-0.1-2,0c-1.2,0.2-2.2,0.6-3.1,1.3
			c-0.9,0.7-1.6,1.5-2.1,2.6c-0.5,1-0.7,2-0.7,3c0,1,0.2,2.1,0.7,3.2l-2.4-1.2c-0.2-1-0.2-2-0.1-3.1c0.1-1,0.4-2,0.9-2.9
			c0.4-0.8,0.9-1.5,1.5-2.2c0.6-0.7,1.3-1.2,2.1-1.7c1.3-0.8,2.7-1.2,4.1-1.2c1.4-0.1,2.8,0.2,4.2,0.9c1.2,0.6,2.2,1.3,3,2.1
			c0.8,0.9,1.4,1.9,1.8,3.1c0.4,1.1,0.5,2.3,0.5,3.4c-0.1,1.1-0.4,2.3-0.9,3.4c-0.4,0.9-1,1.7-1.6,2.4c-0.7,0.7-1.5,1.3-2.4,1.9
			L423.9,352z"/>
		<path class="st1" d="M410.7,349.2l14.7,8.7l-1,1.7l-5.6-3.4l-4.6,7.8l5.6,3.4l-1.1,1.8l-14.7-8.7l1.1-1.8l7.4,4.4l4.6-7.8
			l-7.4-4.4L410.7,349.2z"/>
		<path class="st1" d="M413.1,378.3l-18.9-4l1.3-1.8l5.5,1.3l3.9-5.4l-3-4.8l1.3-1.8L413.1,378.3z M409.5,375.7l-3.5-5.9l-3.2,4.4
			L409.5,375.7z"/>
		<path class="st1" d="M387.6,380.9l12.7,4.1l-7.3-9.2l1.3-1.5l11.1,14.3l-14.5-4.8l6.7,13.8l-15.6-9l1.3-1.5l10.2,6L387.6,380.9z"
			/>
		<path class="st1" d="M384.1,396.8l-5.3-5.5l1.4-1.4l11.8,12.3l-2.6,2.5c-0.9,0.9-1.6,1.5-2.1,1.8c-0.5,0.3-1,0.5-1.6,0.6
			c-0.7,0.1-1.3,0-2-0.3s-1.3-0.7-1.9-1.3c-0.6-0.6-1-1.2-1.2-1.9c-0.2-0.7-0.3-1.4-0.2-2c0.1-0.5,0.3-1,0.6-1.5
			c0.3-0.5,0.9-1.2,1.9-2.1l0.4-0.4L384.1,396.8z M385.4,398.1l-0.7,0.7c-1.3,1.2-2,2.2-2.1,2.9c-0.2,0.7,0.1,1.4,0.8,2.2
			c0.8,0.8,1.5,1.1,2.3,1s1.7-0.8,3-1.9l0.7-0.7L385.4,398.1z"/>
		<path class="st1" d="M371.5,398.1l11.2,12.9l-1.5,1.3L370,399.4L371.5,398.1z"/>
		<path class="st1" d="M358.3,419.3c-0.7-1-1.2-2-1.5-3.2c-0.3-1.1-0.3-2.3-0.2-3.5s0.6-2.3,1.2-3.3c0.6-1,1.4-1.9,2.4-2.6
			s2-1.2,3.2-1.5c1.2-0.3,2.3-0.4,3.5-0.2c1.2,0.2,2.3,0.5,3.3,1.1c1,0.6,1.9,1.4,2.6,2.3c0.7,1,1.2,2,1.5,3.2
			c0.3,1.1,0.3,2.3,0.1,3.5c-0.2,1.2-0.6,2.3-1.2,3.3c-0.6,1-1.4,1.9-2.4,2.6c-1,0.7-2,1.2-3.2,1.6c-1.2,0.3-2.3,0.4-3.5,0.2
			c-1.2-0.2-2.3-0.5-3.3-1.1C359.9,421,359,420.2,358.3,419.3z M361.4,408.2c-0.7,0.6-1.3,1.2-1.8,2c-0.5,0.8-0.8,1.7-0.9,2.6
			c-0.1,0.9-0.1,1.8,0.1,2.7c0.2,0.9,0.6,1.7,1.2,2.5c0.6,0.8,1.3,1.4,2.1,1.9c0.8,0.5,1.7,0.8,2.6,0.9c0.9,0.1,1.8,0.1,2.7-0.1
			c0.9-0.2,1.7-0.6,2.5-1.2c0.8-0.6,1.4-1.2,1.8-2c0.5-0.8,0.8-1.6,0.9-2.6c0.1-0.9,0.1-1.9-0.2-2.8c-0.2-0.9-0.6-1.7-1.2-2.5
			c-0.6-0.8-1.2-1.4-2-1.8c-0.8-0.5-1.6-0.8-2.6-0.9c-1-0.1-1.9-0.1-2.8,0.1C362.9,407.2,362.1,407.6,361.4,408.2z"/>
		<path class="st1" d="M350.7,414l9.1,15.2l-17.7-5.3l6.6,11.1l-1.7,1l-9.1-15.2l17.6,5.2l-6.6-11L350.7,414z"/>
	</g>
</g>
</svg>
