<?xml version="1.0" encoding="utf-8"?>
<!-- Generator: Adobe Illustrator 19.2.0, SVG Export Plug-In . SVG Version: 6.00 Build 0)  -->
<svg version="1.1" id="Ebene_2" xmlns="http://www.w3.org/2000/svg" xmlns:xlink="http://www.w3.org/1999/xlink" x="0px" y="0px"
	 viewBox="0 0 500 500" style="enable-background:new 0 0 500 500;" xml:space="preserve">
<style type="text/css">
	.st0{fill:#00A19B;}
	.st1{fill:#FFFFFF;}
	.st2{fill:#999999;}
	.st3{fill:#019893;}
</style>
<g>
	<polygon class="st0" points="293.9,156.6 252.8,160.5 278.5,197.8 257.5,241.4 312,206.5 334.3,217.6 329.4,178 362.5,132.5 
		323,144.3 307,124.3 	"/>
</g>
<g>
	<path class="st1" d="M344.4,198.9c10,16.1,13.9,12.4,26.8,34.4c5.4,9.2,5.6,15.2,6.1,20.8c0.5,6.5-0.4,18.9-0.9,13.8
		c-4.4-15.3-12.9-24.4-17.7-29c-4.9-4.6-12-11-14.6-22.1C342.8,211.9,344,198.1,344.4,198.9z"/>
	<path class="st1" d="M379.5,238.1c1.2,2.5,4.4,10,4.6,8.3c0.3-1.5,0.6-2.8,1-3.9c3.5-10.5,12.8-9.4,14.6-22.8
		c1.4-10.1-11.3-29.1-11.4-28c-2,10.3-10.7,10.8-13.2,18.2C372.9,216.4,372.4,222.7,379.5,238.1z"/>
	<path class="st1" d="M382.2,293.5c0.3,1.2,0.7-2.5,3.5-5.8c2.2-2.5,6.4-4.3,9.9-5.7c8.1-3.2,12.7-8.1,14.6-17.2
		c2.2-10.2,1.9-23-3.2-32.7c-0.8-1.5-1.7-2.9-2.7-4.3c-0.4-0.6-1.6-2.1-1.3-1.2c1.4,6.4,2.4,12.1-1.6,17.1
		c-3.9,4.8-9.6,3.3-14.2,11.5C382.5,263.5,381.6,291.3,382.2,293.5z"/>
	<path class="st1" d="M352.5,242.1c0,0,1.5,10.9-0.6,18.8c-6.7,25.7,15.7,45.3,16.8,47c0.2,0.5,6.1-21.8,2.2-35.9
		C368,261.3,359.5,248.6,352.5,242.1z"/>
	<path class="st1" d="M408.8,289.9c0.1,8.3-3.8,15.2-7.9,20.6c-4.1,5.5-15.1,10.4-24.1,13.4c-9,3-11.5,5.9-13.4,8.3
		c2.6-8,5.6-13.2,9.2-21.8c2-4.2,3.9-9,10.3-13.8C389.3,291.9,400.2,292.6,408.8,289.9z"/>
	<path class="st1" d="M397.5,323.8c0,0-3.4,19.1-14.8,30.3c-11,10.8-46.8,13-46,12.7c8.8-4.6,11-8.1,15.6-15.7
		c4.6-7.7,8-11.6,16-12.3C376.3,338,392.1,338.5,397.5,323.8z"/>
	<path class="st1" d="M304.3,384.7c-2.3,1.9-5.9,5.3-3.7,4c9.7-4.5,28.7,4.3,39.7,4c11-0.3,22.3-13.4,26.8-18.8
		c2.9-3.5,2.8-4.5,1.8-3.7c-10.7,9.6-25.4-1-38.8,1.1C321.3,372.7,306.8,382.7,304.3,384.7z"/>
	<path class="st1" d="M284.5,382.2c2.9-2.5,14.3-7.9,25.3-10.6c24-5.7,29-16.1,29-25.7c0-0.3-7.2,3.3-29,5.2
		C293.6,352.6,285.1,372.7,284.5,382.2z"/>
	<path class="st1" d="M334.3,400.1c-1.1-0.1-9.6,4.4-29.2-3.5c-25.8-10.3-37.4,0.6-36.2,0.6c1.2-0.1,11.4,1.3,31.6,12.4
		C320.2,420.6,335.3,400.2,334.3,400.1z"/>
	<path class="st1" d="M291.8,418.4c-6.2-4-21.3-18.3-37.9-19.7c-16.5-1.4-29.5-7.1-30-7.2c8.3,11.9,13.2,19.4,26.8,25.5
		C265,423.5,285.5,419.7,291.8,418.4z"/>
	<path class="st1" d="M222.7,385.4c-1.3-0.5,15.2-12.5,24.3-15.2c17.6-5.2,21,4.3,38.1-13.3c-0.1,10.2-5.2,23.6-15.9,30.2
		C254.8,396,230.9,388.8,222.7,385.4z"/>
	<path class="st1" d="M188.6,381.5c-2.1-0.5-4.3-1.7-4.5-1.5c-0.2,0.1,0.7,3,1,4.1c1.7,8.2,5.9,17.3,15.4,25.1
		c7.7,6.3,13.6,6.9,23.4,7.7c6.1,0.5,10.4,1.8,17.2,4.9c0.7,0.3,2.3,1.3,2.4,1.1c0.1-0.2-2-1.5-2.7-2.1c-7.4-5.5-11.5-15-18-22.7
		c-4.2-5-10.9-10-18-13C201.3,383.6,193.7,382.6,188.6,381.5z"/>
	<path class="st1" d="M277.7,109.1c-0.3-0.1-11.9,6.3-20.6,4.4c-19.3-4.1-31.2,19.7-30.8,19.9c0.3,0.1,12.9-5.3,24.3-2.1
		C266.7,135.9,278,109.2,277.7,109.1z"/>
	<path class="st1" d="M356.5,172.2c0.2,0.1,1.9,10.7,7.4,15.6c12.3,10.8,2.9,29.7,2.6,29.5c-0.2-0.1-3-11-10.8-16.9
		C344.7,192.1,356.3,172.1,356.5,172.2z"/>
	<path class="st1" d="M265.2,148.1c0,0-9.7,0.4-18.4-4.2c-8.8-4.6-23.7-2.8-32,0.4c-8.4,3.3-13.8,6.3-18.8,9.5
		c-4.9,3.2,5.7-2.1,13.6-2c4.8,0.1,15.6,4.6,21.5,5.5C236.8,158.2,250.3,157.6,265.2,148.1z"/>
	<path class="st1" d="M227.1,102.3c-0.2-0.1-7.7,7.4-18.5,9.8c-19.9,4.5-15.2,35.2-13.2,34.6C229.8,135.3,227.2,102.5,227.1,102.3z"
		/>
	<path class="st1" d="M214.9,158.9c0,0-3.3,5.3-13.8,3.7c-10.6-1.6-16.2-3.9-26,3.5c-9.9,7.3-14.3,18.5-14.3,18.5s13.1-6.3,26.2-2.8
		C200,185.4,218.1,178.9,214.9,158.9z"/>
	<path class="st1" d="M161.1,171.3c0,0,17.1-8.6,22.1-20.3c4-9.3,2.4-20,3.7-29c0.3-2.4,2.1-6.4,1.8-6.7c-0.3-0.2-6.1,7.8-19.7,16
		C151.7,141.6,156.7,157.2,161.1,171.3z"/>
	<path class="st1" d="M139.6,200.3c3.7-5.2,8.7-10.7,10.4-18.4c1.3-5.7-0.1-12-0.4-17.5c-0.5-8.1-0.2-14.7,2-16
		c0,0-35.1-8.9-17.9,62.9C134.4,209.5,136.4,204.9,139.6,200.3z"/>
	<path class="st1" d="M193.9,187.5c0,0-8.8,3.6-17.8,2.9c-10.4-0.8-30.4,2.8-40.7,37.3c3.1-4.4,8.3-10.8,15.4-13.9
		c8.3-3.6,18.8-3.7,24.8-7.1C186.8,200.5,193.9,187.5,193.9,187.5z"/>
	<path class="st1" d="M113.3,198.6c3.9-4.6,7.1-8.7,7.5-10.4c0,0,5.8,12,4.7,28.7c-1.1,16.8-8,18.8-5.7,28.3
		c-6.3-6.1-16.5-18.9-15.9-30.4C104.3,208.9,109.2,203.5,113.3,198.6z"/>
	<path class="st1" d="M172.5,213.6c0,0-4,6.1-23,12.8c-18.9,6.7-21.4,26.9-22,30.5c6.9-8.6,13-12.2,23.4-15.6
		C161.3,237.9,175,234.3,172.5,213.6z"/>
	<path class="st1" d="M157.3,246.4c0,0,0.4,6.5-14.8,8.5c-15.1,2-22.7,8.4-12.7,33.5c2.7-8.1,8.4-12.9,18.4-19
		C158.3,263.3,159.5,255.5,157.3,246.4z"/>
	<path class="st1" d="M121.7,292.4c0,0-2.8-6.8-2.4-21.7c0.4-14.9-15.1-27.1-16.2-32.9c-3.6,9.7-13.1,9.7-10,25.7
		C96.1,279.4,118.5,291.2,121.7,292.4z"/>
	<path class="st1" d="M100.3,300.8c-1.3,3.6-1.1,8.1,0.8,12.6c1.6-0.9,3.4-1.7,5.3-2.2L122,307c-8.8-15.4-22.8-22.3-22.8-22.3
		S103.1,292.6,100.3,300.8z"/>
</g>
<g>
	<path class="st2" d="M358.3,310.6l-24.1-57.2c-3.5-8.4-13.4-12.3-22-8.6l-16.6,7c-8.6,3.6-12.8,13.4-9.2,21.8l13.3,31.5l22.5-7.8
		l4.9-1.7l0.3,5.1c0.3,4.9-2.2,10.3-4.1,13.7c5.9,4.8,9.1,9.3,9.3,9.5l3,4.2l-20.8,7.2c-0.3,0.1-0.6,0.2-0.9,0.2
		c4.7,4.8,12.1,6.5,18.8,3.7l16.6-7C357.7,328.8,361.9,319,358.3,310.6z"/>
	<path class="st2" d="M138.6,396.2l-0.3-5.2c0-0.3-0.3-5.9,1.4-13.2c-3.6-1.5-8.9-4.2-11.7-8.2l-2.9-4.2l28.6-9.9l-8.9-33
		c-2.4-8.8-11.6-13.9-20.7-11.5l-17.4,4.7c-9,2.4-14.5,11.5-12.1,20.4l16.2,59.9c2.4,8.8,11.6,14,20.7,11.5l17.4-4.7
		c7-1.9,11.8-7.8,12.5-14.4c-0.2,0.1-0.5,0.2-0.7,0.3L138.6,396.2z"/>
	<path class="st2" d="M234.7,355.4c0,0-19.1,6.6-37.6,12.9l0.2,0.1c0,0,2.4-0.1,4.3,4.5c0.1,0.3,0.6,1.7,2,1.2l1.4-0.5l9.3-3.1
		c0,0,1,2.3,5.8,0.7c3.3-1.2,8.8-2.9,17.9-6.1c9.2-3.2,14.6-5.1,17.9-6.3c4.8-1.6,4.2-4.1,4.2-4.1l9.2-3.3l1.4-0.5
		c1.4-0.5,0.9-1.9,0.8-2.2c-1.4-4.7,0.6-6.2,0.6-6.2l0.1-0.2C253.3,349,234.7,355.4,234.7,355.4z"/>
	<path class="st2" d="M210.5,285.1c11.2-3.9,22.8-2.6,22.8-2.6c-2.1,1.2-4.9,5.8-4.3,11.4c0.7,5.6,2.2,16-3.3,18.8
		c0,0-3.1,1.3-5.1,1.9c-2,0.7-5.2,1.6-5.2,1.6c-6.1,1.3-11.2-7.9-14.2-12.7c-2.9-4.8-7.9-6.7-10.3-6.4
		C190.9,297.1,199.3,289,210.5,285.1z"/>
	<path class="st2" d="M323.5,301.1l-47,16.2c0,0-2.1,7.9-7.4,9.7c-2.4,0.8-76.5,26.4-78.9,27.2c-5.3,1.8-11.8-3.1-11.8-3.1l-47,16.2
		c3.5,5.2,13.1,8,13.1,8c-2.6,8.5-2.2,15.5-2.2,15.5l14.7-5l0.8-0.3l1.8-0.6c0.6-0.2,0.9-0.8,0.7-1.4l-0.3-0.9l-0.2-0.7l-1.5-4.2
		l75.2-25.9l76.6-26.4l1.1,3.2l0.3,0.8l0.6,1.8c0.2,0.6,0.8,0.9,1.4,0.7l0.9-0.3l0.7-0.2l14.3-4.9c0,0-4-5.7-11.3-10.8
		C318,315.5,323.8,307.4,323.5,301.1z"/>
	<g>
		<path class="st2" d="M196.8,273.5c4.1-0.1,6,2.1,12,0.8c6.7-1.6,7.7-4.5,10.8-5.8c2.3-1,4.9-0.7,7.1,2.2c-3-7.4-9-12.8-20.3-10.8
			c-11.3,2.3-14.5,10.1-15.1,17.1C192.4,274.7,195.4,273.5,196.8,273.5z"/>
	</g>
	<g>
		<path class="st2" d="M176.3,237l1.3,3.8l0.1,0.4l0.1,0.3c0.1,0.2,0.3,0.3,0.4,0.2l0.3-0.1l0.6-0.2l11.5-4l1,0.5l1.6,4.6
			c-4,2.5-4,7.2-4.1,11.6l0,1.8c0,0-0.1,2.9-0.1,2.9c-0.1,2.1,0,4.4,1.4,5.9c3.2-4.9,8.2-8,15-9.4c2.8-0.5,5.5-0.6,7.9-0.4
			c-0.4-1.3-1.3-2.5-2.3-3.6c0,0-1.9-2.3-1.9-2.3l0,0c-3.2-3.9-6.8-8.2-11.5-8.1l-1.6-4.7l0.5-1l11.7-4l0.4-0.1l0.2-0.1
			c0.2-0.1,0.3-0.2,0.2-0.4l-0.1-0.3l-0.2-0.6l-1.3-3.8l-0.2-0.5l0-0.1c-0.1-0.2-0.3-0.3-0.4-0.2l-0.2,0.1l-0.7,0.3l-8.6,2.9
			l-1.3-0.6l-9.8,3.4l-0.7,1.3l-8.8,3l-0.4,0.1l-0.2,0.1c-0.2,0.1-0.3,0.2-0.2,0.4l0.1,0.3L176.3,237z"/>
		<path class="st2" d="M286.1,284.9l-1-2.3v0l-3.1-7.3c-0.1-0.3-0.2-0.5-0.3-0.8l0,0l-10-29.1l-0.9-2.6c-0.2-0.6-0.8-0.9-1.4-0.7
			l-0.9,0.3l-0.7,0.2l-45,15.5c0.3,0.2,0.6,0.4,0.9,0.6c2.2,1.7,4.1,4,5.6,6.7l39.3-13.5c0.2-0.1,0.4,0,0.4,0.2l1.3,3.8
			c0.1,0.2,0,0.4-0.2,0.4l-38.8,13.4c0.9,2.5,1.6,5.3,2,8.3c2.5,0.3,5.4,0.8,8.7,1.9c-1.8,1.4-3.7,2.8-5.5,4.7
			c-1.3,1.3-3.5,4.7-3,8.7l0.1,0.9c0.6,5,1.6,13.3-1.8,18.7l7,20.3l5.2-1.8c-0.8-2.3-3.1-9.1-5.2-15c3.8,1.9,11.7,3.9,16.1,11.2
			l12.8-4.4c2.5-0.8,4.3-5.1,4.9-7l0.5-2l5.6-1.9l1.8-0.6c0.6-0.2,0.9-0.8,0.7-1.4l-0.3-0.9l0,0l-0.2-0.7c-1.4-4.2-2.9-8.3-3.6-10.5
			c-1.4-3.9,3.2-8.1,7.3-10.8l1.4-0.9C286.3,286.2,286.4,285.6,286.1,284.9z M275.5,280.2c-0.9,2.7-1.8,3.6-4,4.3
			c-1,0.3-8.7,3-18,6.2l-0.1,0c-0.2,0.1-0.4,0-0.4-0.2l0,0c-0.1-0.2-1.6-4.5-2.4-6.8c-2.1-6,1.2-7,1.9-7.2
			c0.5-0.2,21.9-7.5,21.9-7.5c0.2-0.1,0.4,0,0.4,0.2l2.8,8.2C276.8,278,276,278.9,275.5,280.2z"/>
		<path class="st2" d="M197.8,306.6l-0.5-0.8c-2.1-3.4-5.8-4.8-7.6-5c-2.5-0.4-4.9-0.3-7.2-0.3c1.7-2.6,3.5-4.6,5.1-6.2
			c7.1-7,13.8-10.6,13.8-10.6s-2.2-3-7-2c-3.7,0.7-5.5,5.7-6.3,9.2c0-0.1,0-0.1,0-0.1c-0.1-0.2-0.8-2.4-1.2-5.7l-39.8,13.7
			c-0.2,0.1-0.4,0-0.4-0.2l-1.3-3.8c-0.1-0.2,0-0.4,0.2-0.4l40.9-14.1c-0.1-3.1,0.2-6.6,1.3-9.9l-46.3,15.9l-0.8,0.3l-1.8,0.6
			c-0.6,0.2-0.9,0.8-0.7,1.4l0.3,0.9l10.6,30.8c0,0,0.1,0.6,0.2,0.8l2.5,9.2c0,0,0,0,0,0l0.2,0.8c0.2,0.7,0.6,1.1,1.2,1.1l1.1-0.1
			c5-0.4,11.6-0.1,13,4c0.7,2.1,2.1,6.2,3.6,10.3l0.2,0.6l0.4,1.2c0.2,0.6,0.8,0.9,1.4,0.7l0.9-0.3l0.7-0.2l2.6-0.9l2-0.7l1.7,1.2
			c1.6,1.2,5.7,3.4,8.2,2.5l14-4.8c-0.9-7.5,2.9-13.4,5.1-17.2c1.9,5.6,4,11.7,4.8,13.9l5.2-1.8l-6.9-20.2
			C204.9,318.3,200.5,311,197.8,306.6z M180,316.1c0,0-15.8,5.5-16.8,5.8c-2.2,0.7-3.4,0.6-5.8-1c-1.1-0.7-2.4-0.9-3.4-0.9l-2.8-8.2
			c-0.1-0.2,0-0.4,0.2-0.4c0,0,20.3-7,20.5-7.1c0.7-0.2,3.8-1.5,5.9,4.5c0.8,2.2,2.2,6.5,2.3,6.7C180.2,315.5,180.2,316,180,316.1z"
			/>
	</g>
</g>
<g>
	<path class="st3" d="M110.5,123.7l-4.2,5.2l3.1,3.4c0.2-0.4,0.4-0.7,0.8-1.2c0.9-1.1,1.9-1.9,3.1-2.4c1.5-0.6,3.4-0.5,5.1,0.9
		c2.7,2.2,2.9,5.9,0.5,8.9c-1.2,1.5-2.7,2.4-3.6,2.7l-1-1.6c0.8-0.3,2.1-1.1,3.1-2.3c1.4-1.8,1.5-4.2-0.3-5.7
		c-1.8-1.4-4-1.3-6.2,1.5c-0.6,0.8-1,1.5-1.4,2l-5.9-6.2l5.3-6.6L110.5,123.7z"/>
</g>
<g>
	<g>
		<path class="st1" d="M83.9,330.3l-9.4,9.5l11.5-2.4l0.7,1.8L69,342.7l10.8-10.8l-15.3-0.2l15.1-9.8l0.7,1.8l-9.9,6.3L83.9,330.3z"
			/>
		<path class="st1" d="M79.2,319.6l-16.3,5l-2.6-8.6l1.8-0.5l2,6.7l4.7-1.4l-2-6.7l1.8-0.6l2,6.7l6.2-1.9l-2-6.7l1.8-0.6L79.2,319.6
			z"/>
		<path class="st1" d="M75.7,307.9l-16.6,3.9l-0.9-3.9c-0.3-1.1-0.4-1.9-0.4-2.5c0-0.5,0.1-1.1,0.3-1.5c0.3-0.6,0.7-1.1,1.3-1.5
			c0.6-0.4,1.3-0.7,2.1-0.9c1.4-0.3,2.5-0.2,3.4,0.4c0.9,0.6,1.5,1.6,1.8,3.1l0.1,0.4l6.4-8.2l0.6,2.5l-6.5,7.9l0.1,0.3l7.9-1.8
			L75.7,307.9z M60.3,309.5l5.6-1.3l-0.4-1.5c-0.4-1.5-0.8-2.5-1.3-3c-0.5-0.4-1.3-0.5-2.3-0.3c-1.1,0.2-1.8,0.7-2.1,1.3
			c-0.3,0.6-0.3,1.7,0.1,3.2L60.3,309.5z"/>
		<path class="st1" d="M58.1,284c-0.8,0.9-1.3,1.9-1.6,2.9c-0.3,1-0.3,2-0.2,3.1c0.1,0.9,0.4,1.7,0.9,2.5c0.5,0.8,1.1,1.5,1.8,2
			c0.8,0.5,1.6,0.9,2.5,1.1c0.9,0.2,1.8,0.2,2.8,0.1c0.8-0.1,1.5-0.3,2.1-0.6c0.6-0.3,1.2-0.7,1.7-1.1c0.9-0.8,1.5-1.8,1.8-2.8
			c0.4-1.1,0.5-2.2,0.3-3.3c-0.2-1.1-0.5-2-1.1-2.9c-0.6-0.9-1.4-1.6-2.4-2.2l2.7-0.4c0.7,0.7,1.3,1.6,1.8,2.5
			c0.5,0.9,0.8,1.9,0.9,2.9c0.1,0.9,0.1,1.8,0,2.7s-0.4,1.7-0.8,2.5c-0.7,1.4-1.6,2.5-2.7,3.3c-1.1,0.8-2.5,1.4-4,1.6
			c-1.3,0.2-2.5,0.2-3.6-0.1c-1.1-0.3-2.2-0.8-3.2-1.6c-1-0.7-1.7-1.6-2.3-2.6c-0.6-1-0.9-2.1-1.1-3.3c-0.1-1-0.1-1.9,0-2.9
			c0.2-1,0.5-1.9,1-2.9L58.1,284z"/>
		<path class="st1" d="M70.7,279l-17,1.1l-0.6-9l1.8-0.1l0.5,6.9l4.9-0.3l-0.5-6.9l1.9-0.1l0.5,6.9l6.5-0.4l-0.5-6.9l1.9-0.1
			L70.7,279z"/>
		<path class="st1" d="M70,266.9l-17-0.2l0-3.3c0-2.4,0.2-4.1,0.4-5.1c0.3-1,0.7-1.8,1.3-2.6c0.8-1,1.7-1.7,2.9-2.2
			c1.2-0.5,2.5-0.7,4.1-0.7c1.5,0,2.9,0.3,4,0.8c1.2,0.5,2.1,1.3,2.9,2.3c0.6,0.8,1,1.6,1.2,2.6c0.2,1,0.3,2.4,0.3,4.4l0,0.7
			L70,266.9z M68.1,264.8l0-1.3c0-2.1,0-3.5-0.2-4.4c-0.2-0.8-0.5-1.5-0.9-2c-0.6-0.7-1.3-1.2-2.2-1.6c-0.9-0.4-2-0.6-3.2-0.6
			c-1.2,0-2.2,0.2-3.2,0.5c-0.9,0.3-1.7,0.9-2.3,1.6c-0.5,0.5-0.8,1.2-1,2c-0.2,0.8-0.3,2.3-0.3,4.3l0,1.3L68.1,264.8z"/>
		<path class="st1" d="M70.4,250l-17-1.6l0.8-9l1.8,0.2l-0.6,6.9l4.9,0.5L61,240l1.9,0.2l-0.6,6.9l6.5,0.6l0.6-6.9l1.9,0.2L70.4,250
			z"/>
		<path class="st1" d="M63.3,230.2c0.6-1,1.4-1.7,2.3-2.2c0.9-0.4,1.8-0.6,2.9-0.4c1.5,0.2,2.7,0.9,3.5,2.1c0.8,1.1,1.1,2.5,0.8,4.1
			c-0.2,1.3-0.7,2.4-1.6,3.2s-1.9,1.2-3.2,1.4l-0.6-2c1.1-0.1,1.9-0.4,2.5-0.8c0.6-0.5,1-1.1,1.1-2c0.2-1,0-1.9-0.5-2.6
			c-0.5-0.7-1.2-1.1-2.1-1.3c-0.8-0.1-1.4,0-2.1,0.3c-0.6,0.3-1.2,0.9-1.7,1.7l-1.2,1.9c-0.6,1-1.4,1.8-2.2,2.2
			c-0.8,0.4-1.8,0.6-2.8,0.4c-1.2-0.2-2.1-0.8-2.8-1.8c-0.6-1-0.8-2.2-0.6-3.6c0.2-1,0.5-1.9,1.1-2.5c0.5-0.7,1.3-1.1,2.2-1.4
			l0.8,1.8c-0.7,0.3-1.3,0.6-1.7,1s-0.6,0.9-0.7,1.5c-0.1,0.8,0,1.4,0.4,2c0.4,0.6,0.9,0.9,1.6,1c0.6,0.1,1.1,0,1.6-0.3
			c0.5-0.3,1-0.8,1.4-1.5L63.3,230.2z"/>
		<path class="st1" d="M76,216.4l-14.6-3.9l-1.2,4.7l-1.9-0.5l3-11.3l1.9,0.5l-1.2,4.6l14.6,3.9L76,216.4z"/>
		<path class="st1" d="M78.3,207.9l-16.1-5.7l0.7-1.9l6.2,2.2l3-8.5l-6.2-2.2l0.7-1.9l16.1,5.7l-0.7,1.9l-8.1-2.9l-3,8.5L79,206
			L78.3,207.9z"/>
		<path class="st1" d="M84.2,192.1l-15.6-7l3.7-8.2l1.7,0.8l-2.8,6.4l4.5,2l2.8-6.4l1.7,0.8l-2.8,6.4l6,2.7l2.8-6.4l1.7,0.8
			L84.2,192.1z"/>
		<path class="st3" d="M95.6,165.7l1.7,1l-5.2,8.9l-1.9-5.3c-0.1-0.3-0.3-0.9-0.5-1.5c-1.4-4-2.7-6.4-3.8-7.1
			c-0.8-0.4-1.5-0.5-2.3-0.3c-0.8,0.3-1.4,0.8-1.9,1.7c-0.5,0.9-0.7,1.8-0.5,2.6c0.2,0.8,0.8,1.5,1.8,2.1l0.2,0.1l-1,1.6
			c0,0-0.1-0.1-0.2-0.1c-0.1,0-0.2-0.1-0.2-0.1c-1.4-0.8-2.2-1.9-2.5-3.1c-0.3-1.3,0-2.6,0.8-4.1c0.8-1.4,1.8-2.3,3-2.7
			c1.2-0.4,2.4-0.2,3.7,0.5c0.9,0.5,1.7,1.4,2.4,2.5c0.7,1.1,1.4,2.8,2.1,5.1l1.1,3.8L95.6,165.7z"/>
		<path class="st3" d="M102.7,159.3c-1,1.5-2.5,2.3-4.4,2.2c-1.9,0-4-0.8-6.2-2.4c-2.3-1.6-3.7-3.2-4.4-5c-0.7-1.8-0.5-3.4,0.5-4.9
			c1.1-1.5,2.5-2.3,4.4-2.3c1.9,0,4,0.8,6.2,2.4c2.3,1.6,3.8,3.2,4.5,5C104,156.1,103.8,157.7,102.7,159.3z M101.3,158.3
			c0.7-1,0.7-2.2,0.1-3.4c-0.6-1.2-1.9-2.5-3.8-3.8c-1.9-1.3-3.6-2.1-5-2.2c-1.4-0.2-2.4,0.3-3.1,1.3c-0.7,1-0.7,2.1,0,3.4
			s1.9,2.5,3.8,3.8c1.9,1.3,3.5,2,4.9,2.2C99.6,159.7,100.7,159.3,101.3,158.3z"/>
		<path class="st3" d="M110.3,148.4l-11.8-9.5l-2.2,2.7l-0.7-2l2.7-3.4l13.1,10.6L110.3,148.4z"/>
		<path class="st1" d="M130.8,126.7l-11.1-13l6.8-5.8l1.2,1.4l-5.3,4.5l3.2,3.7l5.3-4.5l1.2,1.4l-5.3,4.5l5.5,6.4L130.8,126.7z"/>
		<path class="st1" d="M140,119.1l-10.4-13.5l1.6-1.2l10.4,13.5L140,119.1z"/>
		<path class="st1" d="M139.2,97.8l16.4,10.3l-1.8,1.2l-4.8-3.1l-5.5,3.8l1.1,5.6l-1.8,1.2L139.2,97.8z M141.7,101.5l1.3,6.7
			l4.5-3.1L141.7,101.5z"/>
		<path class="st1" d="M162.8,103.9l-8-15l7.9-4.2l0.9,1.6l-6.1,3.3l2.3,4.3l6.1-3.3l0.9,1.7l-6.1,3.3l4,7.4L162.8,103.9z"/>
		<path class="st1" d="M185.9,83.7c0.5,1.1,0.7,2.3,0.7,3.4c0,1.2-0.2,2.3-0.7,3.4c-0.5,1.1-1.1,2.1-2,3c-0.9,0.9-1.8,1.5-2.9,2
			c-1.1,0.5-2.3,0.7-3.5,0.7c-1.2,0-2.4-0.2-3.5-0.6c-1.1-0.4-2.1-1.1-3-1.9c-0.8-0.8-1.5-1.8-2-2.9c-0.5-1.1-0.7-2.3-0.7-3.4
			c0-1.2,0.2-2.3,0.7-3.4c0.5-1.1,1.1-2.1,2-2.9c0.9-0.9,1.8-1.5,2.9-2c1.1-0.5,2.3-0.7,3.5-0.8c1.2,0,2.4,0.2,3.5,0.6
			c1.1,0.4,2.1,1.1,2.9,1.9C184.8,81.6,185.4,82.5,185.9,83.7z M180.3,93.7c0.9-0.4,1.6-0.9,2.2-1.5c0.6-0.7,1.1-1.4,1.5-2.3
			c0.4-0.9,0.5-1.8,0.5-2.7c0-0.9-0.2-1.8-0.6-2.7c-0.4-0.9-0.9-1.6-1.6-2.3c-0.7-0.7-1.4-1.2-2.3-1.5c-0.9-0.4-1.8-0.5-2.7-0.5
			c-0.9,0-1.8,0.2-2.7,0.6c-0.9,0.4-1.6,0.9-2.3,1.5c-0.6,0.7-1.1,1.4-1.5,2.3c-0.4,0.9-0.5,1.8-0.5,2.7c0,0.9,0.2,1.8,0.6,2.7
			c0.4,0.9,0.9,1.6,1.5,2.3c0.6,0.6,1.4,1.1,2.3,1.5c0.9,0.4,1.8,0.5,2.7,0.5C178.5,94.3,179.4,94.1,180.3,93.7z"/>
		<path class="st1" d="M192.1,90.6l-5.3-16.2l3.8-1.2c1.1-0.4,1.9-0.5,2.4-0.6c0.5,0,1.1,0,1.5,0.2c0.6,0.2,1.1,0.6,1.6,1.2
			c0.5,0.5,0.8,1.2,1.1,2c0.4,1.3,0.4,2.5-0.1,3.4c-0.5,0.9-1.5,1.6-2.9,2.1l-0.3,0.1l8.7,5.7l-2.4,0.8l-8.4-5.8l-0.3,0.1L194,90
			L192.1,90.6z M189.3,75.4l1.8,5.4l1.5-0.5c1.5-0.5,2.5-1,2.8-1.6c0.4-0.6,0.4-1.3,0.1-2.3c-0.3-1-0.8-1.7-1.5-1.9
			c-0.7-0.2-1.7-0.1-3.2,0.3L189.3,75.4z"/>
		<path class="st1" d="M211.8,85.7l-7.9-10.8l0.5,11.8l-1.9,0.4l-0.6-18.1l9,12.4l2.7-15.1l7.3,16.5l-1.9,0.4l-4.7-10.8L211.8,85.7z
			"/>
		<path class="st1" d="M220.9,65.8l2-0.3l1.3,10.5c0.2,1.7,0.7,2.9,1.6,3.6c0.8,0.7,2,1,3.6,0.8c1.6-0.2,2.6-0.7,3.3-1.6
			c0.6-0.9,0.8-2.2,0.6-3.9l-1.3-10.5l2-0.3l1.3,10.5c0.3,2.3,0,4.1-1,5.3c-0.9,1.3-2.5,2-4.7,2.3c-2.2,0.3-3.9-0.1-5.1-1.1
			c-1.2-1-2-2.6-2.3-4.9L220.9,65.8z"/>
		<path class="st1" d="M239.8,80.9l-0.8-17l2-0.1l0.7,15.1l6.4-0.3l0.1,1.9L239.8,80.9z"/>
		<path class="st1" d="M256.2,62.8l7.4,17.9l-2.2,0l-2.1-5.3l-6.7-0.1l-2.3,5.2l-2.2,0L256.2,62.8z M256.1,67.3l-2.8,6.2l5.4,0.1
			L256.1,67.3z"/>
		<path class="st1" d="M290.4,75.7c-0.2,1.2-0.6,2.3-1.2,3.3c-0.6,1-1.4,1.8-2.4,2.5c-1,0.7-2.1,1.2-3.2,1.5
			c-1.2,0.3-2.4,0.3-3.6,0.1c-1.2-0.2-2.3-0.6-3.3-1.2c-1-0.6-1.9-1.4-2.6-2.4c-0.7-1-1.2-2-1.5-3.2c-0.3-1.1-0.3-2.3-0.1-3.5
			c0.2-1.2,0.6-2.3,1.2-3.3c0.6-1,1.4-1.9,2.4-2.6c1-0.7,2-1.2,3.2-1.4c1.2-0.3,2.4-0.3,3.5-0.1c1.2,0.2,2.3,0.6,3.4,1.2
			c1,0.6,1.9,1.4,2.6,2.4c0.7,1,1.2,2,1.5,3.2C290.5,73.3,290.6,74.5,290.4,75.7z M280.3,81.3c0.9,0.1,1.8,0.1,2.7-0.1
			c0.9-0.2,1.7-0.6,2.5-1.2c0.8-0.6,1.4-1.2,1.9-2c0.5-0.8,0.8-1.6,0.9-2.6c0.1-0.9,0.1-1.9-0.1-2.8c-0.2-0.9-0.6-1.7-1.1-2.5
			c-0.6-0.8-1.2-1.4-2-1.9c-0.8-0.5-1.6-0.8-2.6-0.9c-0.9-0.1-1.9-0.1-2.7,0.1c-0.9,0.2-1.7,0.6-2.5,1.2c-0.8,0.6-1.4,1.2-1.9,2
			c-0.5,0.8-0.8,1.7-0.9,2.6c-0.1,0.9-0.1,1.8,0.1,2.7c0.2,0.9,0.6,1.7,1.2,2.5c0.6,0.8,1.2,1.4,2,1.9
			C278.5,80.8,279.3,81.1,280.3,81.3z"/>
		<path class="st1" d="M291.9,84.8l4.6-17.1l8.5,16.4l3.3-12.5l1.9,0.5l-4.6,17.1L297,72.9l-3.3,12.4L291.9,84.8z"/>
		<path class="st1" d="M309.3,89.8l5.7-16.1l8.5,3l-0.6,1.7l-6.6-2.3l-1.6,4.6l6.6,2.3l-0.6,1.8l-6.6-2.3l-2.2,6.2l6.6,2.3l-0.6,1.8
			L309.3,89.8z"/>
		<path class="st1" d="M345.2,91.1c-0.3-1.2-0.8-2.1-1.5-2.9c-0.6-0.8-1.5-1.4-2.5-1.9c-0.8-0.4-1.7-0.6-2.6-0.7
			c-0.9-0.1-1.8,0.1-2.7,0.4c-0.9,0.3-1.7,0.8-2.3,1.4c-0.7,0.6-1.2,1.4-1.7,2.3c-0.4,0.7-0.6,1.4-0.7,2.1c-0.1,0.7-0.1,1.4,0,2
			c0.2,1.2,0.6,2.2,1.3,3.1c0.7,0.9,1.5,1.6,2.5,2.1c1,0.5,2,0.7,3,0.7c1,0,2.1-0.2,3.2-0.7l-1.2,2.4c-1,0.2-2.1,0.2-3.1,0
			c-1-0.2-2-0.5-2.9-0.9c-0.8-0.4-1.5-0.9-2.2-1.5c-0.6-0.6-1.2-1.3-1.6-2.1c-0.7-1.3-1.1-2.7-1.1-4.1c0-1.4,0.3-2.8,1-4.2
			c0.6-1.2,1.3-2.1,2.2-2.9c0.9-0.8,1.9-1.3,3.1-1.7c1.2-0.4,2.3-0.5,3.4-0.4s2.3,0.4,3.4,1c0.9,0.4,1.7,1,2.4,1.7s1.3,1.5,1.8,2.5
			L345.2,91.1z"/>
		<path class="st1" d="M361.5,106.3c-0.6,1-1.5,1.9-2.4,2.6c-1,0.7-2,1.1-3.2,1.4s-2.4,0.3-3.6,0.1c-1.2-0.2-2.3-0.6-3.3-1.3
			c-1-0.6-1.9-1.5-2.6-2.4c-0.7-1-1.2-2.1-1.5-3.2c-0.3-1.2-0.3-2.3-0.1-3.5c0.2-1.2,0.6-2.2,1.3-3.3c0.7-1,1.5-1.9,2.4-2.6
			c1-0.7,2-1.1,3.2-1.4c1.2-0.2,2.3-0.3,3.5,0c1.2,0.2,2.3,0.6,3.3,1.3c1,0.6,1.9,1.5,2.6,2.4c0.7,1,1.2,2,1.5,3.2
			c0.3,1.2,0.3,2.3,0.1,3.5C362.5,104.2,362.1,105.3,361.5,106.3z M350,107.4c0.8,0.5,1.6,0.8,2.5,1c0.9,0.2,1.8,0.1,2.8-0.1
			c0.9-0.2,1.8-0.6,2.5-1.1c0.7-0.5,1.4-1.2,1.9-2c0.5-0.8,0.8-1.7,1-2.6s0.1-1.8-0.1-2.7c-0.2-0.9-0.6-1.8-1.1-2.5
			c-0.5-0.7-1.2-1.4-2-1.9c-0.8-0.5-1.7-0.8-2.6-1c-0.9-0.2-1.8-0.1-2.7,0.1c-0.9,0.2-1.8,0.6-2.5,1.1c-0.8,0.5-1.4,1.2-1.9,2
			c-0.5,0.8-0.8,1.6-1,2.5c-0.2,0.9-0.1,1.8,0.1,2.7c0.2,0.9,0.6,1.8,1.1,2.5S349.2,106.9,350,107.4z"/>
		<path class="st1" d="M359.2,115.2l11-13.9l1.4,18.4l8-10.2l1.5,1.2l-11,13.9l-1.4-18.3l-7.9,10.1L359.2,115.2z"/>
		<path class="st1" d="M384.3,124c0.5,1.1,0.7,2.1,0.5,3.1c-0.1,1-0.6,1.8-1.3,2.6c-1.1,1.1-2.3,1.7-3.7,1.8c-1.4,0-2.7-0.5-3.9-1.7
			c-1-0.9-1.6-1.9-1.8-3.1c-0.2-1.1,0-2.3,0.7-3.4l2,0.6c-0.5,0.9-0.8,1.8-0.7,2.6c0.1,0.8,0.4,1.5,1,2c0.7,0.7,1.5,1,2.4,1
			c0.9,0,1.6-0.3,2.3-1c0.5-0.6,0.8-1.2,0.9-1.9c0.1-0.7-0.1-1.5-0.5-2.4l-0.9-2.1c-0.5-1.1-0.7-2.1-0.6-3.1
			c0.1-0.9,0.5-1.8,1.2-2.5c0.8-0.9,1.8-1.3,3-1.3c1.2,0,2.3,0.5,3.3,1.5c0.7,0.7,1.2,1.5,1.5,2.3c0.2,0.8,0.2,1.7,0,2.6l-2-0.4
			c0.2-0.7,0.2-1.4,0.1-2c-0.1-0.6-0.4-1-0.8-1.4c-0.6-0.5-1.2-0.8-1.8-0.8c-0.7,0-1.3,0.3-1.7,0.8c-0.4,0.4-0.6,1-0.7,1.5
			s0.1,1.3,0.5,2L384.3,124z"/>
		<path class="st1" d="M384,137.2l11-10.3l-3.3-3.5l1.4-1.3l8,8.5l-1.4,1.3l-3.3-3.5l-11,10.3L384,137.2z"/>
		<path class="st1" d="M390,143.7l13.2-10.8l2.5,3.1c0.7,0.9,1.2,1.6,1.4,2.1c0.2,0.5,0.4,1,0.4,1.5c0,0.6-0.1,1.3-0.5,1.9
			c-0.3,0.6-0.8,1.2-1.4,1.7c-1.1,0.9-2.1,1.3-3.2,1.1c-1.1-0.1-2.1-0.8-3-2l-0.2-0.3l-2.2,10.2l-1.6-2l2.3-10l-0.2-0.2l-6.3,5.2
			L390,143.7z M403.1,135.5l-4.4,3.6l1,1.2c1,1.2,1.8,1.9,2.5,2.1c0.7,0.2,1.4-0.1,2.2-0.7c0.8-0.7,1.3-1.4,1.3-2.1
			c0-0.7-0.5-1.7-1.5-2.9L403.1,135.5z"/>
		<path class="st1" d="M411.8,143.6l1.2,1.7l-8.7,6c-1.4,1-2.2,2-2.5,3.1s0.1,2.2,1,3.5c0.9,1.3,1.9,2,3,2.1
			c1.1,0.1,2.3-0.3,3.7-1.3l8.7-6l1.2,1.7l-8.7,6c-1.9,1.3-3.6,1.8-5.2,1.6c-1.6-0.3-3-1.3-4.2-3.1c-1.3-1.8-1.7-3.5-1.4-5.1
			s1.4-3,3.3-4.3L411.8,143.6z"/>
		<path class="st1" d="M425.4,173c0.4-1.1,0.5-2.2,0.4-3.2c-0.1-1-0.4-2-1-3c-0.4-0.8-1-1.5-1.8-2c-0.7-0.6-1.5-1-2.4-1.2
			c-0.9-0.2-1.8-0.3-2.7-0.2c-0.9,0.1-1.8,0.4-2.7,0.9c-0.7,0.4-1.3,0.8-1.8,1.3c-0.5,0.5-0.9,1.1-1.2,1.7c-0.5,1.1-0.7,2.2-0.7,3.3
			c0,1.1,0.3,2.2,0.9,3.2c0.5,0.9,1.2,1.7,2.1,2.3s1.9,1,3,1.2l-2.3,1.3c-1-0.4-1.8-1-2.6-1.7c-0.8-0.7-1.4-1.5-1.9-2.4
			c-0.4-0.8-0.8-1.6-0.9-2.5c-0.2-0.9-0.2-1.8-0.2-2.7c0.1-1.5,0.6-2.9,1.4-4c0.8-1.2,1.8-2.2,3.1-2.9c1.1-0.6,2.3-1,3.4-1.2
			c1.2-0.1,2.3,0,3.5,0.3c1.2,0.3,2.2,0.9,3.1,1.6c0.9,0.7,1.6,1.6,2.2,2.7c0.5,0.9,0.8,1.8,1,2.7c0.2,1,0.2,2,0.1,3.1L425.4,173z"
			/>
		<path class="st1" d="M416.6,184.9l13.7-6.3l-2-4.4l1.8-0.8L435,184l-1.8,0.8l-2-4.4l-13.7,6.3L416.6,184.9z"/>
		<path class="st1" d="M433.9,205.1c-1.1,0.4-2.3,0.6-3.5,0.6c-1.2,0-2.3-0.3-3.4-0.8c-1.1-0.5-2-1.2-2.9-2.1
			c-0.8-0.9-1.4-1.9-1.9-3c-0.4-1.1-0.6-2.3-0.6-3.5c0-1.2,0.3-2.4,0.8-3.5c0.5-1.1,1.2-2.1,2-2.9c0.9-0.8,1.8-1.4,3-1.8
			c1.1-0.4,2.3-0.6,3.5-0.6c1.2,0.1,2.3,0.3,3.4,0.9c1.1,0.5,2,1.2,2.8,2.1c0.8,0.9,1.4,1.9,1.8,3c0.4,1.1,0.6,2.3,0.6,3.5
			c0,1.2-0.3,2.4-0.8,3.4c-0.5,1.1-1.2,2-2,2.8C436.1,204,435,204.6,433.9,205.1z M424.1,199c0.3,0.9,0.8,1.6,1.4,2.3
			c0.6,0.7,1.4,1.2,2.2,1.6c0.9,0.4,1.7,0.6,2.7,0.6c0.9,0,1.8-0.1,2.7-0.4c0.9-0.3,1.7-0.8,2.4-1.4c0.7-0.6,1.2-1.4,1.6-2.2
			c0.4-0.9,0.6-1.7,0.6-2.7c0-0.9-0.1-1.8-0.4-2.7c-0.3-0.9-0.8-1.7-1.4-2.3c-0.6-0.7-1.4-1.2-2.2-1.6c-0.9-0.4-1.8-0.6-2.7-0.6
			c-0.9,0-1.8,0.1-2.7,0.5c-0.9,0.3-1.7,0.8-2.3,1.4c-0.7,0.6-1.2,1.4-1.6,2.2c-0.4,0.9-0.6,1.8-0.7,2.7
			C423.7,197.2,423.8,198.1,424.1,199z"/>
		<path class="st1" d="M426.6,210.9l16.5-4.5l1,3.9c0.3,1.1,0.5,1.9,0.5,2.5c0,0.5-0.1,1.1-0.3,1.5c-0.2,0.6-0.7,1.1-1.2,1.6
			c-0.6,0.4-1.2,0.8-2,1c-1.3,0.4-2.5,0.3-3.4-0.3c-0.9-0.6-1.6-1.6-1.9-3l-0.1-0.3l-6.1,8.4l-0.7-2.5l6.2-8.1l-0.1-0.3l-7.8,2.1
			L426.6,210.9z M442,208.8l-5.5,1.5l0.4,1.5c0.4,1.5,0.9,2.5,1.4,2.9c0.5,0.4,1.3,0.5,2.3,0.2c1.1-0.3,1.7-0.8,2-1.4
			c0.3-0.6,0.2-1.7-0.2-3.2L442,208.8z"/>
		<path class="st1" d="M440.3,227.2c-0.2,1.2-0.7,2.1-1.4,2.8s-1.5,1.2-2.6,1.4c-1.5,0.3-2.9,0.1-4-0.7c-1.1-0.8-1.9-2-2.2-3.6
			c-0.3-1.3-0.1-2.5,0.3-3.5c0.5-1,1.3-1.8,2.5-2.4l1.3,1.6c-1,0.4-1.7,1-2.1,1.7c-0.4,0.7-0.5,1.4-0.4,2.3c0.2,1,0.6,1.7,1.3,2.2
			c0.7,0.5,1.5,0.7,2.4,0.5c0.7-0.1,1.4-0.5,1.8-1c0.5-0.5,0.8-1.3,1-2.2l0.5-2.2c0.2-1.2,0.7-2.2,1.3-2.8c0.6-0.7,1.4-1.1,2.5-1.3
			c1.2-0.2,2.3,0,3.2,0.7c1,0.7,1.6,1.8,1.8,3.1c0.2,1,0.2,1.9-0.1,2.7c-0.3,0.8-0.8,1.5-1.5,2.1l-1.4-1.4c0.6-0.5,1-1,1.2-1.5
			c0.2-0.5,0.3-1.1,0.2-1.7c-0.1-0.7-0.5-1.3-1.1-1.7c-0.6-0.4-1.2-0.5-1.9-0.4c-0.6,0.1-1.1,0.4-1.4,0.9c-0.4,0.5-0.6,1.1-0.8,1.9
			L440.3,227.2z"/>
		<path class="st1" d="M442.9,232.6l6.6,1.3l-0.4,2.1l-6.5-1.9L442.9,232.6z"/>
		<path class="st1" d="M450.7,245.6l0.1,2.2l-12.4,4.7l13.3,4.1l-13.1,4.9l12.7,4l0.1,2.2l-17.9-6.1l13-4.8l-13.3-4.1L450.7,245.6z"
			/>
		<path class="st1" d="M441.1,287.8c-1.2-0.1-2.3-0.4-3.4-1c-1-0.5-1.9-1.3-2.7-2.2c-0.8-0.9-1.3-2-1.7-3.1
			c-0.4-1.2-0.5-2.3-0.4-3.5c0.1-1.2,0.4-2.3,1-3.4c0.5-1.1,1.3-2,2.2-2.8c0.9-0.8,1.9-1.4,3-1.7c1.1-0.4,2.3-0.5,3.5-0.4
			c1.2,0.1,2.3,0.4,3.4,1c1,0.5,1.9,1.3,2.7,2.2c0.8,0.9,1.3,2,1.7,3.1c0.4,1.2,0.5,2.3,0.4,3.5c-0.1,1.2-0.4,2.4-1,3.4
			c-0.5,1.1-1.3,2-2.2,2.8c-0.9,0.8-1.9,1.4-3,1.7C443.5,287.7,442.3,287.9,441.1,287.8z M434.9,278.1c-0.1,0.9,0,1.8,0.3,2.7
			c0.3,0.9,0.7,1.7,1.3,2.4c0.6,0.7,1.3,1.3,2.1,1.7c0.8,0.4,1.7,0.7,2.6,0.8c1,0.1,1.9,0,2.8-0.3c0.9-0.3,1.7-0.7,2.4-1.3
			c0.7-0.6,1.3-1.3,1.7-2.1c0.4-0.8,0.7-1.7,0.8-2.6c0.1-0.9,0-1.9-0.3-2.7c-0.3-0.9-0.7-1.7-1.3-2.4c-0.6-0.7-1.3-1.3-2.2-1.7
			c-0.8-0.4-1.7-0.7-2.7-0.8c-0.9-0.1-1.8,0-2.7,0.3c-0.9,0.3-1.7,0.7-2.4,1.3c-0.7,0.6-1.3,1.3-1.7,2.1
			C435.2,276.3,434.9,277.1,434.9,278.1z"/>
		<path class="st1" d="M432,289.9l16.8,3l-0.7,3.9c-0.2,1.1-0.4,1.9-0.6,2.4c-0.2,0.5-0.5,0.9-0.9,1.3c-0.5,0.4-1.1,0.7-1.8,0.9
			c-0.7,0.2-1.5,0.2-2.2,0c-1.4-0.2-2.4-0.8-2.9-1.7c-0.6-0.9-0.7-2.1-0.5-3.6l0.1-0.4l-9.1,5l0.5-2.5l9.1-4.7l0.1-0.3l-8-1.4
			L432,289.9z M446.8,294.6l-5.6-1l-0.3,1.5c-0.3,1.6-0.3,2.6,0,3.2c0.3,0.6,1,1,2,1.2c1.1,0.2,1.9,0.1,2.4-0.4
			c0.5-0.5,0.9-1.5,1.2-3L446.8,294.6z"/>
		<path class="st1" d="M429.7,302.3l16.6,4l-0.5,2l-14.7-3.6l-1.5,6.3l-1.9-0.5L429.7,302.3z"/>
		<path class="st1" d="M427.2,312.5l16.2,5.3l-1,3.1c-0.7,2.3-1.4,3.9-1.9,4.8s-1.2,1.6-2,2.1c-1,0.7-2.2,1.1-3.4,1.2
			c-1.3,0.1-2.6-0.1-4.1-0.5c-1.4-0.5-2.6-1.1-3.6-2c-1-0.8-1.6-1.8-2.1-3c-0.3-0.9-0.4-1.8-0.4-2.8c0.1-1,0.4-2.4,1-4.3l0.2-0.7
			L427.2,312.5z M428.4,315.1l-0.4,1.2c-0.6,2-1,3.4-1.1,4.2c-0.1,0.8,0,1.6,0.3,2.2c0.3,0.8,0.9,1.6,1.6,2.2
			c0.8,0.6,1.7,1.1,2.8,1.5c1.1,0.4,2.2,0.5,3.2,0.5c1-0.1,1.8-0.3,2.6-0.8c0.6-0.4,1.1-0.9,1.5-1.6c0.4-0.7,1-2.1,1.6-4l0.4-1.2
			L428.4,315.1z"/>
		<path class="st1" d="M424.9,353c1.1-0.4,2.1-0.9,2.9-1.5s1.4-1.5,1.9-2.5c0.4-0.8,0.6-1.7,0.6-2.6c0-0.9-0.1-1.8-0.4-2.7
			c-0.3-0.9-0.8-1.6-1.4-2.3c-0.6-0.7-1.4-1.2-2.3-1.6c-0.7-0.3-1.4-0.6-2.1-0.7c-0.7-0.1-1.4-0.1-2,0c-1.2,0.2-2.2,0.6-3.1,1.3
			c-0.9,0.7-1.6,1.5-2.1,2.6c-0.5,1-0.7,2-0.7,3c0,1,0.2,2.1,0.7,3.2l-2.4-1.2c-0.2-1-0.2-2-0.1-3.1c0.1-1,0.4-2,0.9-2.9
			c0.4-0.8,0.9-1.5,1.5-2.2c0.6-0.7,1.3-1.2,2.1-1.7c1.3-0.8,2.7-1.2,4.1-1.2c1.4-0.1,2.8,0.2,4.2,0.9c1.2,0.6,2.2,1.3,3,2.1
			c0.8,0.9,1.4,1.9,1.8,3.1c0.4,1.1,0.5,2.3,0.5,3.4c-0.1,1.1-0.4,2.3-0.9,3.4c-0.4,0.9-1,1.7-1.6,2.4c-0.7,0.7-1.5,1.3-2.4,1.9
			L424.9,353z"/>
		<path class="st1" d="M411.7,350.2l14.7,8.7l-1,1.7l-5.6-3.4l-4.6,7.8l5.6,3.4l-1.1,1.8l-14.7-8.7l1.1-1.8l7.4,4.4l4.6-7.8
			l-7.4-4.4L411.7,350.2z"/>
		<path class="st1" d="M414.1,379.3l-18.9-4l1.3-1.8l5.5,1.3l3.9-5.4l-3-4.8l1.3-1.8L414.1,379.3z M410.5,376.7l-3.5-5.9l-3.2,4.4
			L410.5,376.7z"/>
		<path class="st1" d="M388.6,381.9l12.7,4.1l-7.3-9.2l1.3-1.5l11.1,14.3l-14.5-4.8l6.7,13.8l-15.6-9l1.3-1.5l10.2,6L388.6,381.9z"
			/>
		<path class="st1" d="M385.1,397.8l-5.3-5.5l1.4-1.4l11.8,12.3l-2.6,2.5c-0.9,0.9-1.6,1.5-2.1,1.8c-0.5,0.3-1,0.5-1.6,0.6
			c-0.7,0.1-1.3,0-2-0.3s-1.3-0.7-1.9-1.3c-0.6-0.6-1-1.2-1.2-1.9c-0.2-0.7-0.3-1.4-0.2-2c0.1-0.5,0.3-1,0.6-1.5
			c0.3-0.5,0.9-1.2,1.9-2.1l0.4-0.4L385.1,397.8z M386.4,399.1l-0.7,0.7c-1.3,1.2-2,2.2-2.1,2.9c-0.2,0.7,0.1,1.4,0.8,2.2
			c0.8,0.8,1.5,1.1,2.3,1s1.7-0.8,3-1.9l0.7-0.7L386.4,399.1z"/>
		<path class="st1" d="M372.5,399.1l11.2,12.9l-1.5,1.3L371,400.4L372.5,399.1z"/>
		<path class="st1" d="M359.3,420.3c-0.7-1-1.2-2-1.5-3.2c-0.3-1.1-0.3-2.3-0.2-3.5s0.6-2.3,1.2-3.3c0.6-1,1.4-1.9,2.4-2.6
			s2-1.2,3.2-1.5c1.2-0.3,2.3-0.4,3.5-0.2c1.2,0.2,2.3,0.5,3.3,1.1c1,0.6,1.9,1.4,2.6,2.3c0.7,1,1.2,2,1.5,3.2
			c0.3,1.1,0.3,2.3,0.1,3.5c-0.2,1.2-0.6,2.3-1.2,3.3c-0.6,1-1.4,1.9-2.4,2.6c-1,0.7-2,1.2-3.2,1.6c-1.2,0.3-2.3,0.4-3.5,0.2
			c-1.2-0.2-2.3-0.5-3.3-1.1C360.9,422,360,421.2,359.3,420.3z M362.4,409.2c-0.7,0.6-1.3,1.2-1.8,2c-0.5,0.8-0.8,1.7-0.9,2.6
			c-0.1,0.9-0.1,1.8,0.1,2.7c0.2,0.9,0.6,1.7,1.2,2.5c0.6,0.8,1.3,1.4,2.1,1.9c0.8,0.5,1.7,0.8,2.6,0.9c0.9,0.1,1.8,0.1,2.7-0.1
			c0.9-0.2,1.7-0.6,2.5-1.2c0.8-0.6,1.4-1.2,1.8-2c0.5-0.8,0.8-1.6,0.9-2.6c0.1-0.9,0.1-1.9-0.2-2.8c-0.2-0.9-0.6-1.7-1.2-2.5
			c-0.6-0.8-1.2-1.4-2-1.8c-0.8-0.5-1.6-0.8-2.6-0.9c-1-0.1-1.9-0.1-2.8,0.1C363.9,408.2,363.1,408.6,362.4,409.2z"/>
		<path class="st1" d="M351.7,415l9.1,15.2l-17.7-5.3l6.6,11.1l-1.7,1l-9.1-15.2l17.6,5.2l-6.6-11L351.7,415z"/>
	</g>
</g>
</svg>
